<?xml version="1.0" encoding="UTF-8" standalone="no"?>
<!-- Created with Inkscape (http://www.inkscape.org/) -->

<svg
   xmlns:dc="http://purl.org/dc/elements/1.1/"
   xmlns:cc="http://creativecommons.org/ns#"
   xmlns:rdf="http://www.w3.org/1999/02/22-rdf-syntax-ns#"
   xmlns:svg="http://www.w3.org/2000/svg"
   xmlns="http://www.w3.org/2000/svg"
   xmlns:sodipodi="http://sodipodi.sourceforge.net/DTD/sodipodi-0.dtd"
   xmlns:inkscape="http://www.inkscape.org/namespaces/inkscape"
   id="svg2"
   version="1.1"
   inkscape:version="0.48.2 r9819"
   width="540.74945"
   height="347.90997"
   xml:space="preserve"
   sodipodi:docname="modelprojs.svg"><metadata
     id="metadata8"><rdf:RDF><cc:Work
         rdf:about=""><dc:format>image/svg+xml</dc:format><dc:type
           rdf:resource="http://purl.org/dc/dcmitype/StillImage" /><dc:title /></cc:Work></rdf:RDF></metadata><defs
     id="defs6"><clipPath
       clipPathUnits="userSpaceOnUse"
       id="clipPath20"><path
         d="m 19.168,7128.34 2029.162,0 0,-6337.508 -2029.162,0 0,6337.508 z"
         id="path22"
         inkscape:connector-curvature="0" /></clipPath><clipPath
       clipPathUnits="userSpaceOnUse"
       id="clipPath108"><path
         d="m 2195,7128.34 2029.17,0 0,-6337.508 -2029.17,0 0,6337.508 z"
         id="path110"
         inkscape:connector-curvature="0" /></clipPath><clipPath
       clipPathUnits="userSpaceOnUse"
       id="clipPath196"><path
         d="m 4370.83,7128.34 2028.34,0 0,-6337.508 -2028.34,0 0,6337.508 z"
         id="path198"
         inkscape:connector-curvature="0" /></clipPath><clipPath
       clipPathUnits="userSpaceOnUse"
       id="clipPath284"><path
         d="m 6545.83,7128.34 2029.17,0 0,-6337.508 -2029.17,0 0,6337.508 z"
         id="path286"
         inkscape:connector-curvature="0" /></clipPath><clipPath
       clipPathUnits="userSpaceOnUse"
       id="clipPath372"><path
         d="m 8721.67,7128.34 2029.13,0 0,-6337.508 -2029.13,0 0,6337.508 z"
         id="path374"
         inkscape:connector-curvature="0" /></clipPath></defs><sodipodi:namedview
     pagecolor="#ffffff"
     bordercolor="#666666"
     borderopacity="1"
     objecttolerance="10"
     gridtolerance="10"
     guidetolerance="10"
     inkscape:pageopacity="0"
     inkscape:pageshadow="2"
     inkscape:window-width="1316"
     inkscape:window-height="856"
     id="namedview4"
     showgrid="false"
     showguides="true"
     inkscape:guide-bbox="true"
     inkscape:zoom="0.64848485"
     inkscape:cx="520.75257"
     inkscape:cy="8.8902087"
     inkscape:window-x="0"
     inkscape:window-y="0"
     inkscape:window-maximized="0"
     inkscape:current-layer="g4748"
     fit-margin-top="0"
     fit-margin-left="0"
     fit-margin-right="0"
     fit-margin-bottom="0"><sodipodi:guide
       orientation="1,0"
       position="1040.2355,278.41949"
       id="guide3613" /><sodipodi:guide
       orientation="1,0"
       position="-351.29766,425.24532"
       id="guide4845" /><sodipodi:guide
       orientation="0,1"
       position="711.17897,-0.36212695"
       id="guide5071" /></sodipodi:namedview><g
     id="g10"
     inkscape:groupmode="layer"
     inkscape:label="ink_ext_XXXXXX"
     transform="matrix(1.25,0,0,-1.25,-152.37243,957.38424)"><text
   xml:space="preserve"
   style="font-size:40px;font-style:normal;font-variant:normal;font-weight:200;font-stretch:normal;text-align:start;line-height:125%;letter-spacing:0px;word-spacing:0px;writing-mode:lr-tb;text-anchor:start;fill:#000000;fill-opacity:1;stroke:none;font-family:Helvetica Neue, Helvetica, Arial, sans-serif;-inkscape-font-specification:Arial"
   x="1210.868"
   y="231.06767"
   id="text3521"
   sodipodi:linespacing="125%"
   transform="matrix(0.8,0,0,-0.8,-2.9189008,786.522)"><tspan
     sodipodi:role="line"
     id="tspan3523"
     x="1210.868"
     y="231.06767"
     style="font-size:20px" /></text>

<g
   id="g4748"
   transform="translate(-457.68224,70.317757)">


<g
   id="g3170"><path
     transform="matrix(0.16170837,0,0,0.1528461,-489.31291,-48.91894)"
     inkscape:connector-curvature="0"
     id="path288"
     style="fill:none;stroke:#1f77b4;stroke-width:20;stroke-linecap:round;stroke-linejoin:round;stroke-miterlimit:10;stroke-opacity:1;stroke-dasharray:none"
     d="m 7397.5,3220.83 0,6.67 -0.83,2.5 -0.84,2.5 0,2.5 -0.83,2.5 -0.83,2.5 -1.67,1.67 -0.83,2.5 -0.84,2.5 -1.66,1.66 -1.67,1.67 -1.67,2.5 -1.66,1.67 -1.67,1.66 -1.67,1.67 -1.66,1.67 -1.67,1.66 -2.5,1.67 -1.67,0.83 -2.5,1.67 -1.66,0.83 -2.5,0.84 -2.5,0.83 -2.5,0.83 -2.5,0.84 -1.67,0 -2.5,0.83 -15,0 -2.5,-0.83 -2.5,-0.84 -2.5,0 -1.67,-0.83 -2.5,-1.67 -2.5,-0.83 -1.66,-0.83 -2.5,-1.67 -2.5,-0.83 -1.67,-1.67 -1.67,-1.67 -1.66,-1.66 -1.67,-1.67 -1.67,-1.67 -1.66,-1.66 -1.67,-2.5 -1.67,-1.67 -0.83,-2.5 -1.67,-1.67 -0.83,-2.5 -0.83,-2.5 -0.84,-1.66 -0.83,-2.5 -0.83,-2.5 0,-2.5 -0.84,-2.5 0,-12.5 0.84,-2.5 0,-2.5 0.83,-1.67 0.83,-2.5 0.84,-2.5 0.83,-2.5 0.83,-1.67 1.67,-2.5 0.83,-1.66 1.67,-2.5 1.67,-1.67 1.66,-2.5 1.67,-1.67 1.67,-1.66 1.66,-1.67 1.67,-1.67 1.67,-0.83 2.5,-1.67 2.5,-1.66 1.66,-0.84 2.5,-0.83 2.5,-0.83 1.67,-0.84 2.5,-0.83 2.5,-0.83 2.5,0 2.5,-0.84 10,0 2.5,0.84 2.5,0 1.67,0.83 2.5,0 2.5,0.83 2.5,0.84 2.5,0.83 1.66,1.67 2.5,0.83 1.67,1.67 2.5,0.83 1.67,1.67 1.66,1.66 1.67,1.67 1.67,1.67 1.66,2.5 1.67,1.66 1.67,1.67 1.66,2.5 0.84,1.67 0.83,2.5 1.67,2.5 0.83,1.66 0.83,2.5 0,2.5 0.84,2.5 0.83,2.5 0,7.5" /><path
     transform="matrix(0.16170837,0,0,0.1528461,-489.31291,-48.91894)"
     inkscape:connector-curvature="0"
     id="path290"
     style="fill:none;stroke:#ff7f0e;stroke-width:20;stroke-linecap:round;stroke-linejoin:round;stroke-miterlimit:10;stroke-opacity:1;stroke-dasharray:none"
     d="m 8186.67,4506.67 -0.84,2.5 0,5 -0.83,2.5 0,2.5 -0.83,1.66 -0.84,2.5 -0.83,2.5 -0.83,2.5 -1.67,1.67 -0.83,2.5 -1.67,1.67 -0.83,2.5 -1.67,1.66 -1.67,1.67 -1.66,1.67 -1.67,2.5 -2.5,0.83 -1.67,1.67 -1.66,1.66 -2.5,0.84 -1.67,1.66 -2.5,0.84 -2.5,0.83 -2.5,0.83 -1.67,0.84 -2.5,0.83 -2.5,0.83 -5,0 -2.5,0.84 -5,0 -2.5,-0.84 -2.5,0 -2.5,-0.83 -1.66,0 -2.5,-0.83 -2.5,-0.84 -2.5,-0.83 -1.67,-0.83 -2.5,-1.67 -2.5,-0.83 -1.67,-1.67 -2.5,-1.67 -1.66,-1.66 -1.67,-0.84 -1.67,-2.5 -1.66,-1.66 -1.67,-1.67 -1.67,-1.67 -0.83,-2.5 -1.67,-1.66 -0.83,-2.5 -1.67,-2.5 -0.83,-1.67 -0.83,-2.5 -0.84,-2.5 0,-2.5 -0.83,-2.5 0,-2.5 -0.83,-2.5 0,-6.67 0.83,-2.5 0,-2.5 0.83,-2.5 0,-2.5 0.84,-2.5 0.83,-2.5 0.83,-1.66 1.67,-2.5 0.83,-2.5 1.67,-1.67 0.83,-2.5 1.67,-1.67 1.67,-1.66 1.66,-1.67 1.67,-1.67 1.67,-1.66 1.66,-1.67 2.5,-1.67 1.67,-1.66 2.5,-0.84 2.5,-1.66 1.67,-0.84 2.5,-0.83 2.5,-0.83 2.5,-0.84 1.66,0 2.5,-0.83 2.5,0 2.5,-0.83 5,0 2.5,0.83 5,0 2.5,0.83 2.5,0.84 1.67,0.83 2.5,0.83 2.5,0.84 2.5,0.83 1.67,1.67 2.5,0.83 1.66,1.67 1.67,1.66 2.5,1.67 1.67,1.67 1.66,1.66 1.67,1.67 1.67,1.67 0.83,2.5 1.67,1.66 0.83,2.5 1.67,1.67 0.83,2.5 0.83,2.5 0.84,2.5 0.83,1.67 0,2.5 0.83,2.5 0,5 0.84,2.5" /><path
     transform="matrix(0.16170837,0,0,0.1528461,-489.31291,-48.91894)"
     inkscape:connector-curvature="0"
     id="path292"
     style="fill:none;stroke:#2ca02c;stroke-width:20;stroke-linecap:round;stroke-linejoin:round;stroke-miterlimit:10;stroke-opacity:1;stroke-dasharray:none"
     d="m 6976.67,3974.17 0,2.5 -0.84,1.66 0,2.5 -0.83,2.5 0,2.5 -0.83,2.5 -0.84,2.5 -0.83,2.5 -0.83,1.67 -1.67,2.5 -0.83,1.67 -1.67,2.5 -0.83,1.66 -1.67,2.5 -1.67,1.67 -1.66,1.67 -1.67,1.66 -2.5,1.67 -1.67,1.67 -1.66,0.83 -2.5,1.67 -1.67,0.83 -2.5,1.67 -2.5,0.83 -2.5,0.83 -1.67,0.84 -2.5,0.83 -2.5,0 -2.5,0.83 -12.5,0 -2.5,-0.83 -2.5,0 -1.66,-0.83 -2.5,-0.84 -2.5,-0.83 -2.5,-0.83 -1.67,-0.84 -2.5,-0.83 -2.5,-1.67 -1.67,-0.83 -1.66,-1.67 -2.5,-1.66 -1.67,-1.67 -1.67,-1.67 -1.66,-1.66 -1.67,-1.67 -1.67,-2.5 -0.83,-1.67 -1.67,-2.5 -0.83,-1.66 -1.67,-2.5 -0.83,-2.5 -0.83,-2.5 -0.84,-1.67 0,-2.5 -0.83,-2.5 0,-2.5 -0.83,-2.5 0,-7.5 0.83,-2.5 0,-2.5 0.83,-2.5 0,-1.67 0.84,-2.5 0.83,-2.5 0.83,-2.5 1.67,-1.66 0.83,-2.5 1.67,-2.5 0.83,-1.67 1.67,-1.67 1.67,-2.5 1.66,-1.66 1.67,-1.67 1.67,-1.67 2.5,-1.66 1.66,-0.84 1.67,-1.66 2.5,-1.67 2.5,-0.83 1.67,-0.84 2.5,-0.83 2.5,-0.83 2.5,-0.84 1.66,-0.83 2.5,0 2.5,-0.83 12.5,0 2.5,0.83 2.5,0.83 2.5,0 1.67,0.84 2.5,0.83 2.5,0.83 2.5,1.67 1.67,0.83 2.5,1.67 1.66,0.83 1.67,1.67 2.5,1.67 1.67,1.66 1.66,1.67 1.67,1.67 1.67,2.5 0.83,1.66 1.67,2.5 0.83,1.67 1.67,2.5 0.83,2.5 0.83,1.67 0.84,2.5 0.83,2.5 0,2.5 0.83,2.5 0,2.5 0.84,2.5 0,2.5" /><path
     transform="matrix(0.16170837,0,0,0.1528461,-489.31291,-48.91894)"
     inkscape:connector-curvature="0"
     id="path294"
     style="fill:none;stroke:#d62728;stroke-width:20;stroke-linecap:round;stroke-linejoin:round;stroke-miterlimit:10;stroke-opacity:1;stroke-dasharray:none"
     d="m 8484.17,4322.5 0,5 -0.84,2.5 0,2.5 -0.83,2.5 -0.83,2.5 -0.84,1.67 -0.83,2.5 -0.83,2.5 -0.84,1.66 -1.66,2.5 -0.84,1.67 -1.66,2.5 -1.67,1.67 -1.67,1.66 -1.66,2.5 -1.67,1.67 -1.67,0.83 -1.66,1.67 -2.5,1.67 -1.67,1.66 -2.5,0.84 -2.5,0.83 -1.67,0.83 -2.5,0.84 -2.5,0.83 -2.5,0.83 -2.5,0.84 -2.5,0 -2.5,0.83 -6.66,0 -2.5,-0.83 -2.5,0 -2.5,-0.84 -2.5,0 -2.5,-0.83 -2.5,-0.83 -1.67,-0.84 -2.5,-0.83 -2.5,-1.67 -1.67,-0.83 -2.5,-1.67 -1.66,-1.66 -1.67,-0.84 -2.5,-1.66 -1.67,-2.5 -1.66,-1.67 -1.67,-1.67 -0.83,-1.66 -1.67,-2.5 -0.83,-1.67 -1.67,-2.5 -0.83,-2.5 -0.84,-1.67 -0.83,-2.5 -0.83,-2.5 -0.84,-2.5 0,-2.5 -0.83,-2.5 0,-11.66 0.83,-2.5 0,-2.5 0.84,-2.5 0.83,-2.5 0.83,-2.5 0.84,-1.67 0.83,-2.5 1.67,-2.5 0.83,-1.67 1.67,-2.5 0.83,-1.66 1.67,-1.67 1.66,-1.67 1.67,-1.66 2.5,-1.67 1.67,-1.67 1.66,-1.66 2.5,-1.67 1.67,-0.83 2.5,-0.84 2.5,-1.66 1.67,-0.84 2.5,-0.83 2.5,-0.83 2.5,0 2.5,-0.84 5,0 2.5,-0.83 2.5,0 1.66,0.83 5,0 2.5,0.84 2.5,0.83 2.5,0.83 2.5,0.84 1.67,0.83 2.5,0.83 2.5,1.67 1.67,0.83 2.5,1.67 1.66,1.67 1.67,1.66 1.67,1.67 1.66,1.67 1.67,1.66 1.67,1.67 1.66,2.5 0.84,1.67 1.66,2.5 0.84,1.66 0.83,2.5 0.83,2.5 0.84,2.5 0.83,1.67 0.83,2.5 0,2.5 0.84,2.5 0,5" /><path
     transform="matrix(0.16170837,0,0,0.1528461,-489.31291,-48.91894)"
     inkscape:connector-curvature="0"
     id="path296"
     style="fill:none;stroke:#9467bd;stroke-width:20;stroke-linecap:round;stroke-linejoin:round;stroke-miterlimit:10;stroke-opacity:1;stroke-dasharray:none"
     d="m 8038.33,3307.5 0,5 -0.83,2.5 0,2.5 -0.83,2.5 -0.84,1.67 -0.83,2.5 -0.83,2.5 -0.84,2.5 -0.83,1.66 -1.67,2.5 -0.83,1.67 -1.67,2.5 -1.66,1.67 -1.67,1.66 -1.67,1.67 -1.66,1.67 -1.67,1.66 -2.5,1.67 -1.67,1.67 -2.5,0.83 -1.66,1.67 -2.5,0.83 -1.67,0.83 -2.5,0.84 -2.5,0.83 -2.5,0.83 -2.5,0.84 -5,0 -2.5,0.83 -2.5,0 -1.67,-0.83 -5,0 -2.5,-0.84 -2.5,0 -2.5,-0.83 -2.5,-0.83 -1.66,-0.84 -2.5,-1.66 -2.5,-0.84 -1.67,-0.83 -2.5,-1.67 -1.67,-1.66 -1.66,-1.67 -2.5,-1.67 -1.67,-1.66 -1.67,-1.67 -1.66,-1.67 -0.84,-1.66 -1.66,-2.5 -1.67,-1.67 -0.83,-2.5 -0.84,-2.5 -0.83,-1.67 -0.83,-2.5 -0.84,-2.5 -0.83,-2.5 -0.83,-2.5 0,-16.66 0.83,-2.5 0.83,-2.5 0.84,-2.5 0.83,-2.5 0.83,-1.67 0.84,-2.5 0.83,-2.5 1.67,-1.67 1.66,-2.5 0.84,-1.66 1.66,-1.67 1.67,-2.5 1.67,-1.67 2.5,-1.66 1.66,-0.84 1.67,-1.66 2.5,-1.67 1.67,-0.83 2.5,-1.67 2.5,-0.83 1.66,-0.84 2.5,-0.83 2.5,-0.83 2.5,0 2.5,-0.84 2.5,0 2.5,-0.83 6.67,0 2.5,0.83 2.5,0 2.5,0.84 2.5,0.83 2.5,0.83 2.5,0.84 1.67,0.83 2.5,0.83 1.66,0.84 2.5,1.66 1.67,1.67 2.5,0.83 1.67,1.67 1.66,1.67 1.67,2.5 1.67,1.66 1.66,1.67 1.67,2.5 0.83,1.67 1.67,2.5 0.83,1.66 0.84,2.5 0.83,2.5 0.83,1.67 0.84,2.5 0.83,2.5 0,2.5 0.83,2.5 0,5" /><path
     transform="matrix(0.16170837,0,0,0.1528461,-489.31291,-48.91894)"
     inkscape:connector-curvature="0"
     id="path298"
     style="fill:none;stroke:#8c564b;stroke-width:20;stroke-linecap:round;stroke-linejoin:round;stroke-miterlimit:10;stroke-opacity:1;stroke-dasharray:none"
     d="m 7799.17,4438.34 0,5 -0.84,2.5 0,2.5 -0.83,2.5 -0.83,2.5 -0.84,1.66 -0.83,2.5 -0.83,2.5 -0.84,1.67 -1.66,2.5 -0.84,1.67 -1.66,2.5 -1.67,1.66 -1.67,1.67 -1.66,2.5 -1.67,1.67 -1.67,0.83 -1.66,1.67 -2.5,1.66 -1.67,1.67 -2.5,0.83 -2.5,0.84 -1.67,0.83 -2.5,0.83 -2.5,0.84 -2.5,0.83 -2.5,0.83 -2.5,0 -2.5,0.84 -6.66,0 -2.5,-0.84 -2.5,0 -2.5,-0.83 -2.5,0 -2.5,-0.83 -2.5,-0.84 -1.67,-0.83 -2.5,-0.83 -2.5,-1.67 -1.67,-0.83 -2.5,-1.67 -1.66,-1.67 -1.67,-0.83 -2.5,-1.67 -1.67,-2.5 -1.66,-1.66 -1.67,-1.67 -0.83,-1.67 -1.67,-2.5 -0.83,-1.66 -1.67,-2.5 -0.83,-2.5 -0.84,-1.67 -0.83,-2.5 -0.83,-2.5 -0.84,-2.5 0,-2.5 -0.83,-2.5 0,-11.67 0.83,-2.5 0,-2.5 0.84,-2.5 0.83,-2.5 0.83,-2.5 0.84,-1.67 0.83,-2.5 1.67,-2.5 0.83,-1.66 1.67,-2.5 0.83,-1.67 1.67,-1.67 1.66,-1.66 1.67,-1.67 2.5,-1.67 1.67,-1.66 1.66,-1.67 2.5,-1.67 1.67,-0.83 2.5,-0.83 2.5,-1.67 1.67,-0.83 2.5,-0.84 2.5,-0.83 2.5,0 2.5,-0.83 5,0 2.5,-0.84 2.5,0 1.66,0.84 5,0 2.5,0.83 2.5,0.83 2.5,0.84 2.5,0.83 1.67,0.83 2.5,0.84 2.5,1.66 1.67,0.84 2.5,1.66 1.66,1.67 1.67,1.67 1.67,1.66 1.66,1.67 1.67,1.67 1.67,1.66 1.66,2.5 0.84,1.67 1.66,2.5 0.84,1.67 0.83,2.5 0.83,2.5 0.84,2.5 0.83,1.66 0.83,2.5 0,2.5 0.84,2.5 0,5.01" /><path
     transform="matrix(0.16170837,0,0,0.1528461,-489.31291,-48.91894)"
     inkscape:connector-curvature="0"
     id="path300"
     style="fill:none;stroke:#e377c2;stroke-width:20;stroke-linecap:round;stroke-linejoin:round;stroke-miterlimit:10;stroke-opacity:1;stroke-dasharray:none"
     d="m 8459.17,3771.67 0,5 -0.84,2.5 0,2.5 -0.83,1.66 -0.83,2.5 -0.84,2.5 -0.83,2.5 -0.83,2.5 -0.84,1.67 -1.66,2.5 -0.84,1.67 -1.66,2.5 -1.67,1.66 -1.67,1.67 -1.66,1.67 -1.67,1.66 -1.67,1.67 -1.66,1.67 -2.5,1.66 -1.67,0.84 -2.5,1.66 -2.5,0.84 -1.67,0.83 -2.5,0.83 -2.5,0.84 -2.5,0.83 -2.5,0 -2.5,0.83 -14.16,0 -2.5,-0.83 -2.5,0 -2.5,-0.83 -2.5,-0.84 -1.67,-0.83 -2.5,-1.67 -2.5,-0.83 -1.67,-1.67 -2.5,-0.83 -1.66,-1.67 -1.67,-1.66 -2.5,-1.67 -1.67,-1.67 -1.66,-1.66 -1.67,-1.67 -0.83,-2.5 -1.67,-1.67 -0.83,-2.5 -1.67,-1.66 -0.83,-2.5 -0.84,-2.5 -0.83,-1.67 -0.83,-2.5 -0.84,-2.5 0,-2.5 -0.83,-2.5 0,-12.5 0.83,-1.67 0,-2.5 0.84,-2.5 0.83,-2.5 0.83,-2.5 0.84,-2.5 0.83,-1.66 1.67,-2.5 0.83,-1.67 1.67,-2.5 0.83,-1.67 1.67,-1.66 1.66,-2.5 1.67,-1.67 2.5,-1.67 1.67,-1.66 1.66,-0.84 2.5,-1.66 1.67,-0.84 2.5,-1.66 2.5,-0.84 1.67,-0.83 2.5,-0.83 2.5,-0.84 2.5,-0.83 2.5,0 2.5,-0.83 10,0 1.66,0.83 2.5,0 2.5,0.83 2.5,0.84 2.5,0 2.5,0.83 1.67,1.67 2.5,0.83 2.5,0.83 1.67,1.67 2.5,1.67 1.66,0.83 1.67,1.67 1.67,1.66 1.66,1.67 1.67,2.5 1.67,1.67 1.66,1.66 0.84,2.5 1.66,1.67 0.84,2.5 0.83,2.5 0.83,2.5 0.84,1.67 0.83,2.5 0.83,2.5 0,2.5 0.84,2.5 0,5" /><path
     transform="matrix(0.16170837,0,0,0.1528461,-489.31291,-48.91894)"
     inkscape:connector-curvature="0"
     id="path302"
     style="fill:none;stroke:#7f7f7f;stroke-width:20;stroke-linecap:round;stroke-linejoin:round;stroke-miterlimit:10;stroke-opacity:1;stroke-dasharray:none"
     d="m 7325,3927.5 0,7.5 -0.83,2.5 0,2.5 -0.84,2.5 -0.83,1.67 -0.83,2.5 -0.84,2.5 -1.66,2.5 -0.84,1.66 -1.66,2.5 -1.67,1.67 -0.83,1.67 -1.67,2.5 -1.67,1.66 -1.66,1.67 -2.5,1.67 -1.67,0.83 -2.5,1.67 -1.67,1.66 -2.5,0.84 -1.66,0.83 -2.5,1.67 -2.5,0.83 -2.5,0.83 -1.67,0 -2.5,0.84 -2.5,0 -2.5,0.83 -10,0 -2.5,-0.83 -2.5,0 -2.5,-0.84 -1.67,-0.83 -2.5,-0.83 -2.5,-0.84 -2.5,-0.83 -1.66,-1.67 -2.5,-0.83 -1.67,-1.67 -2.5,-0.83 -1.67,-1.67 -1.66,-1.66 -1.67,-1.67 -1.67,-2.5 -1.66,-1.67 -1.67,-1.66 -1.67,-2.5 -0.83,-1.67 -1.67,-2.5 -0.83,-1.67 -0.83,-2.5 -0.84,-2.5 -0.83,-2.5 -0.83,-2.5 0,-1.66 -0.84,-2.5 0,-12.5 0.84,-2.5 0,-2.5 0.83,-2.5 0.83,-2.5 0.84,-1.67 0.83,-2.5 0.83,-2.5 1.67,-1.67 0.83,-2.5 1.67,-1.66 1.67,-2.5 1.66,-1.67 1.67,-1.67 1.67,-1.66 1.66,-1.67 1.67,-1.67 2.5,-1.66 1.67,-0.84 2.5,-1.66 1.66,-0.84 2.5,-1.66 2.5,-0.84 2.5,-0.83 1.67,0 2.5,-0.83 2.5,-0.84 15,0 2.5,0.84 2.5,0 1.67,0.83 2.5,0.83 2.5,0.84 2.5,0.83 1.66,0.83 2.5,1.67 1.67,0.83 2.5,1.67 1.67,1.67 2.5,1.66 1.66,1.67 1.67,1.67 1.67,1.66 0.83,1.67 1.67,2.5 1.66,1.67 0.84,2.5 1.66,2.5 0.84,1.66 0.83,2.5 0.83,2.5 0.84,2.5 0,1.67 0.83,2.5 0,7.5" /><path
     transform="matrix(0.16170837,0,0,0.1528461,-489.31291,-48.91894)"
     inkscape:connector-curvature="0"
     id="path304"
     style="fill:none;stroke:#bcbd22;stroke-width:20;stroke-linecap:round;stroke-linejoin:round;stroke-miterlimit:10;stroke-opacity:1;stroke-dasharray:none"
     d="m 7280.83,4327.5 -0.83,2.5 0,5 -0.83,2.5 0,2.5 -0.84,2.5 -0.83,2.5 -0.83,1.67 -0.84,2.5 -1.66,2.5 -0.84,1.66 -1.66,2.5 -0.84,1.67 -1.66,1.67 -1.67,2.5 -1.67,1.66 -1.66,1.67 -2.5,1.67 -1.67,1.66 -1.67,0.84 -2.5,1.66 -1.66,0.84 -2.5,1.66 -2.5,0.84 -2.5,0.83 -1.67,0.83 -2.5,0 -2.5,0.84 -2.5,0 -2.5,0.83 -10,0 -2.5,-0.83 -2.5,0 -1.67,-0.84 -2.5,-0.83 -2.5,-0.83 -2.5,-0.84 -1.66,-0.83 -2.5,-0.83 -2.5,-1.67 -1.67,-1.67 -2.5,-0.83 -1.67,-1.67 -1.66,-1.66 -1.67,-1.67 -1.67,-1.67 -1.66,-2.5 -1.67,-1.66 -0.83,-2.5 -1.67,-1.67 -0.83,-2.5 -1.67,-1.67 -0.83,-2.5 -0.84,-2.5 -0.83,-2.5 0,-1.66 -0.83,-2.5 0,-2.5 -0.84,-2.5 0,-7.5 0.84,-2.5 0,-2.5 0.83,-2.5 0,-2.5 0.83,-2.5 0.84,-1.67 0.83,-2.5 1.67,-2.5 0.83,-1.67 1.67,-2.5 0.83,-1.66 1.67,-2.5 1.66,-1.67 1.67,-1.67 1.67,-1.66 1.66,-1.67 1.67,-1.67 2.5,-1.66 1.67,-0.84 2.5,-1.66 2.5,-0.84 1.66,-0.83 2.5,-1.67 2.5,-0.83 2.5,0 1.67,-0.83 2.5,-0.84 15,0 2.5,0.84 2.5,0 2.5,0.83 1.67,0.83 2.5,0.84 2.5,0.83 2.5,0.83 1.66,1.67 2.5,0.83 1.67,1.67 1.67,1.67 2.5,1.66 1.66,1.67 1.67,1.67 1.67,1.66 1.66,2.5 0.84,1.67 1.66,1.67 0.84,2.5 1.66,2.5 0.84,1.66 0.83,2.5 0.83,2.5 0.84,2.5 0,2.5 0.83,2.5 0,4.17 0.83,2.5" /><path
     transform="matrix(0.16170837,0,0,0.1528461,-489.31291,-48.91894)"
     inkscape:connector-curvature="0"
     id="path306"
     style="fill:none;stroke:#17becf;stroke-width:20;stroke-linecap:round;stroke-linejoin:round;stroke-miterlimit:10;stroke-opacity:1;stroke-dasharray:none"
     d="m 7472.5,3181.67 0,7.5 -0.83,2.5 0,1.66 -0.84,2.5 -0.83,2.5 -0.83,2.5 -0.84,1.67 -1.66,2.5 -0.84,2.5 -1.66,1.67 -1.67,2.5 -0.83,1.66 -1.67,1.67 -1.67,1.67 -1.66,1.66 -2.5,1.67 -1.67,1.67 -2.5,1.66 -1.67,0.84 -2.5,1.66 -1.66,0.84 -2.5,0.83 -2.5,0.83 -2.5,0.84 -1.67,0.83 -2.5,0 -2.5,0.83 -15,0 -2.5,-0.83 -2.5,-0.83 -1.67,0 -2.5,-0.84 -2.5,-0.83 -2.5,-1.67 -1.66,-0.83 -2.5,-1.67 -1.67,-0.83 -2.5,-1.67 -1.67,-1.66 -1.66,-1.67 -1.67,-1.67 -1.67,-1.66 -1.66,-1.67 -1.67,-2.5 -1.67,-1.67 -0.83,-2.5 -0.83,-1.66 -1.67,-2.5 -0.83,-2.5 -0.84,-1.67 -0.83,-2.5 0,-2.5 -0.83,-2.5 -0.84,-2.5 0,-12.5 0.84,-1.67 0.83,-2.5 0,-2.5 0.83,-2.5 0.84,-2.5 0.83,-2.5 1.67,-1.66 0.83,-2.5 0.83,-1.67 1.67,-2.5 1.67,-1.67 1.66,-1.66 1.67,-2.5 1.67,-1.67 1.66,-1.67 1.67,-1.66 2.5,-0.84 1.67,-1.66 2.5,-0.84 1.66,-1.66 2.5,-0.84 2.5,-0.83 2.5,-0.83 1.67,-0.84 2.5,-0.83 2.5,0 2.5,-0.83 10,0 2.5,0.83 2.5,0 2.5,0.83 1.67,0.84 2.5,0 2.5,0.83 2.5,1.67 1.66,0.83 2.5,0.83 1.67,1.67 2.5,1.67 1.67,0.83 2.5,1.67 1.66,1.66 1.67,1.67 1.67,2.5 0.83,1.67 1.67,1.66 1.66,2.5 0.84,1.67 1.66,2.5 0.84,2.5 0.83,2.5 0.83,1.67 0.84,2.5 0,2.5 0.83,2.5 0,7.5" /><path
     transform="matrix(0.16170837,0,0,0.1528461,-489.31291,-48.91894)"
     inkscape:connector-curvature="0"
     id="path308"
     style="fill:none;stroke:#1f77b4;stroke-width:20;stroke-linecap:round;stroke-linejoin:round;stroke-miterlimit:10;stroke-opacity:1;stroke-dasharray:none"
     d="m 7591.67,3153.33 -53.34,-93.33 107.5,0 -54.16,93.33" /><path
     transform="matrix(0.16170837,0,0,0.1528461,-489.31291,-48.91894)"
     inkscape:connector-curvature="0"
     id="path310"
     style="fill:none;stroke:#ff7f0e;stroke-width:20;stroke-linecap:round;stroke-linejoin:round;stroke-miterlimit:10;stroke-opacity:1;stroke-dasharray:none"
     d="m 7987.5,4860.84 -54.17,-93.34 107.5,0 -53.33,93.34" /><path
     transform="matrix(0.16170837,0,0,0.1528461,-489.31291,-48.91894)"
     inkscape:connector-curvature="0"
     id="path312"
     style="fill:none;stroke:#2ca02c;stroke-width:20;stroke-linecap:round;stroke-linejoin:round;stroke-miterlimit:10;stroke-opacity:1;stroke-dasharray:none"
     d="m 6776.67,4231.67 -53.34,-93.34 106.67,0 -53.33,93.34" /><path
     transform="matrix(0.16170837,0,0,0.1528461,-489.31291,-48.91894)"
     inkscape:connector-curvature="0"
     id="path314"
     style="fill:none;stroke:#d62728;stroke-width:20;stroke-linecap:round;stroke-linejoin:round;stroke-miterlimit:10;stroke-opacity:1;stroke-dasharray:none"
     d="m 8357.5,4539.17 -53.33,-92.5 106.66,0 -53.33,92.5" /><path
     transform="matrix(0.16170837,0,0,0.1528461,-489.31291,-48.91894)"
     inkscape:connector-curvature="0"
     id="path316"
     style="fill:none;stroke:#9467bd;stroke-width:20;stroke-linecap:round;stroke-linejoin:round;stroke-miterlimit:10;stroke-opacity:1;stroke-dasharray:none"
     d="m 8123.33,3293.33 -54.16,-93.33 107.5,0 -53.34,93.33" /><path
     transform="matrix(0.16170837,0,0,0.1528461,-489.31291,-48.91894)"
     inkscape:connector-curvature="0"
     id="path318"
     style="fill:none;stroke:#8c564b;stroke-width:20;stroke-linecap:round;stroke-linejoin:round;stroke-miterlimit:10;stroke-opacity:1;stroke-dasharray:none"
     d="m 7857.5,4001.67 -53.33,-92.5 107.5,0 -54.17,92.5" /><path
     transform="matrix(0.16170837,0,0,0.1528461,-489.31291,-48.91894)"
     inkscape:connector-curvature="0"
     id="path320"
     style="fill:none;stroke:#e377c2;stroke-width:20;stroke-linecap:round;stroke-linejoin:round;stroke-miterlimit:10;stroke-opacity:1;stroke-dasharray:none"
     d="m 8299.17,3616.67 -53.34,-93.34 107.5,0 -54.16,93.34" /><path
     transform="matrix(0.16170837,0,0,0.1528461,-489.31291,-48.91894)"
     inkscape:connector-curvature="0"
     id="path322"
     style="fill:none;stroke:#7f7f7f;stroke-width:20;stroke-linecap:round;stroke-linejoin:round;stroke-miterlimit:10;stroke-opacity:1;stroke-dasharray:none"
     d="m 7590.83,3727.5 -54.16,-92.5 107.5,0 -53.34,92.5" /><path
     transform="matrix(0.16170837,0,0,0.1528461,-489.31291,-48.91894)"
     inkscape:connector-curvature="0"
     id="path324"
     style="fill:none;stroke:#bcbd22;stroke-width:20;stroke-linecap:round;stroke-linejoin:round;stroke-miterlimit:10;stroke-opacity:1;stroke-dasharray:none"
     d="m 7195,4651.67 -53.33,-93.34 107.5,0 -54.17,93.34" /><path
     transform="matrix(0.16170837,0,0,0.1528461,-489.31291,-48.91894)"
     inkscape:connector-curvature="0"
     id="path326"
     style="fill:none;stroke:#17becf;stroke-width:20;stroke-linecap:round;stroke-linejoin:round;stroke-miterlimit:10;stroke-opacity:1;stroke-dasharray:none"
     d="m 7142.5,3367.5 -53.33,-93.33 107.5,0 -54.17,93.33" /><path
     transform="matrix(0.16170837,0,0,0.1528461,-489.31291,-48.91894)"
     inkscape:connector-curvature="0"
     id="path328"
     style="fill:none;stroke:#1f77b4;stroke-width:20;stroke-linecap:round;stroke-linejoin:round;stroke-miterlimit:10;stroke-opacity:1;stroke-dasharray:none"
     d="m 7595.83,3133.33 53.34,93.34 -106.67,0 53.33,-93.34" /><path
     transform="matrix(0.16170837,0,0,0.1528461,-489.31291,-48.91894)"
     inkscape:connector-curvature="0"
     id="path330"
     style="fill:none;stroke:#ff7f0e;stroke-width:20;stroke-linecap:round;stroke-linejoin:round;stroke-miterlimit:10;stroke-opacity:1;stroke-dasharray:none"
     d="m 7918.33,4471.67 53.34,92.5 -107.5,0 54.16,-92.5" /><path
     transform="matrix(0.16170837,0,0,0.1528461,-489.31291,-48.91894)"
     inkscape:connector-curvature="0"
     id="path332"
     style="fill:none;stroke:#2ca02c;stroke-width:20;stroke-linecap:round;stroke-linejoin:round;stroke-miterlimit:10;stroke-opacity:1;stroke-dasharray:none"
     d="m 6673.33,3955.83 54.17,92.5 -107.5,0 53.33,-92.5" /><path
     transform="matrix(0.16170837,0,0,0.1528461,-489.31291,-48.91894)"
     inkscape:connector-curvature="0"
     id="path334"
     style="fill:none;stroke:#d62728;stroke-width:20;stroke-linecap:round;stroke-linejoin:round;stroke-miterlimit:10;stroke-opacity:1;stroke-dasharray:none"
     d="m 8410.84,4190 53.33,92.5 -106.67,0 53.34,-92.5" /><path
     transform="matrix(0.16170837,0,0,0.1528461,-489.31291,-48.91894)"
     inkscape:connector-curvature="0"
     id="path336"
     style="fill:none;stroke:#9467bd;stroke-width:20;stroke-linecap:round;stroke-linejoin:round;stroke-miterlimit:10;stroke-opacity:1;stroke-dasharray:none"
     d="m 8020.83,3264.17 54.17,93.33 -107.5,0 53.33,-93.33" /><path
     transform="matrix(0.16170837,0,0,0.1528461,-489.31291,-48.91894)"
     inkscape:connector-curvature="0"
     id="path338"
     style="fill:none;stroke:#8c564b;stroke-width:20;stroke-linecap:round;stroke-linejoin:round;stroke-miterlimit:10;stroke-opacity:1;stroke-dasharray:none"
     d="m 8023.33,4003.33 53.34,92.5 -106.67,0 53.33,-92.5" /><path
     transform="matrix(0.16170837,0,0,0.1528461,-489.31291,-48.91894)"
     inkscape:connector-curvature="0"
     id="path340"
     style="fill:none;stroke:#e377c2;stroke-width:20;stroke-linecap:round;stroke-linejoin:round;stroke-miterlimit:10;stroke-opacity:1;stroke-dasharray:none"
     d="m 8505.84,3630 53.33,92.5 -106.67,0 53.34,-92.5" /><path
     transform="matrix(0.16170837,0,0,0.1528461,-489.31291,-48.91894)"
     inkscape:connector-curvature="0"
     id="path342"
     style="fill:none;stroke:#7f7f7f;stroke-width:20;stroke-linecap:round;stroke-linejoin:round;stroke-miterlimit:10;stroke-opacity:1;stroke-dasharray:none"
     d="m 7611.67,3793.33 53.33,93.34 -107.5,0 54.17,-93.34" /><path
     transform="matrix(0.16170837,0,0,0.1528461,-489.31291,-48.91894)"
     inkscape:connector-curvature="0"
     id="path344"
     style="fill:none;stroke:#bcbd22;stroke-width:20;stroke-linecap:round;stroke-linejoin:round;stroke-miterlimit:10;stroke-opacity:1;stroke-dasharray:none"
     d="m 7058.33,4618.34 54.17,92.5 -107.5,0 53.33,-92.5" /><path
     transform="matrix(0.16170837,0,0,0.1528461,-489.31291,-48.91894)"
     inkscape:connector-curvature="0"
     id="path346"
     style="fill:none;stroke:#17becf;stroke-width:20;stroke-linecap:round;stroke-linejoin:round;stroke-miterlimit:10;stroke-opacity:1;stroke-dasharray:none"
     d="m 7104.17,3454.17 53.33,92.5 -107.5,0 54.17,-92.5" /><path
     transform="matrix(0.16170837,0,0,0.1528461,-489.31291,-48.91894)"
     inkscape:connector-curvature="0"
     id="path348"
     style="fill:none;stroke:#1f77b4;stroke-width:20;stroke-linecap:round;stroke-linejoin:round;stroke-miterlimit:10;stroke-opacity:1;stroke-dasharray:none"
     d="m 7175,3195.83 -88.33,0 0,-88.33 88.33,0 0,88.33" /><path
     transform="matrix(0.16170837,0,0,0.1528461,-489.31291,-48.91894)"
     inkscape:connector-curvature="0"
     id="path350"
     style="fill:none;stroke:#ff7f0e;stroke-width:20;stroke-linecap:round;stroke-linejoin:round;stroke-miterlimit:10;stroke-opacity:1;stroke-dasharray:none"
     d="m 7655.83,4335 -88.33,0 0,-87.5 88.33,0 0,87.5" /><path
     transform="matrix(0.16170837,0,0,0.1528461,-489.31291,-48.91894)"
     inkscape:connector-curvature="0"
     id="path352"
     style="fill:none;stroke:#2ca02c;stroke-width:20;stroke-linecap:round;stroke-linejoin:round;stroke-miterlimit:10;stroke-opacity:1;stroke-dasharray:none"
     d="m 7365.83,4450.84 -88.33,0 0,-88.34 88.33,0 0,88.34" /><path
     transform="matrix(0.16170837,0,0,0.1528461,-489.31291,-48.91894)"
     inkscape:connector-curvature="0"
     id="path354"
     style="fill:none;stroke:#d62728;stroke-width:20;stroke-linecap:round;stroke-linejoin:round;stroke-miterlimit:10;stroke-opacity:1;stroke-dasharray:none"
     d="m 7871.67,4256.67 -87.5,0 0,-88.34 87.5,0 0,88.34" /><path
     transform="matrix(0.16170837,0,0,0.1528461,-489.31291,-48.91894)"
     inkscape:connector-curvature="0"
     id="path356"
     style="fill:none;stroke:#9467bd;stroke-width:20;stroke-linecap:round;stroke-linejoin:round;stroke-miterlimit:10;stroke-opacity:1;stroke-dasharray:none"
     d="m 8390,3605 -87.5,0 0,-88.33 87.5,0 0,88.33" /><path
     transform="matrix(0.16170837,0,0,0.1528461,-489.31291,-48.91894)"
     inkscape:connector-curvature="0"
     id="path358"
     style="fill:none;stroke:#8c564b;stroke-width:20;stroke-linecap:round;stroke-linejoin:round;stroke-miterlimit:10;stroke-opacity:1;stroke-dasharray:none"
     d="m 8038.33,4132.5 -88.33,0 0,-88.33 88.33,0 0,88.33" /><path
     transform="matrix(0.16170837,0,0,0.1528461,-489.31291,-48.91894)"
     inkscape:connector-curvature="0"
     id="path360"
     style="fill:none;stroke:#e377c2;stroke-width:20;stroke-linecap:round;stroke-linejoin:round;stroke-miterlimit:10;stroke-opacity:1;stroke-dasharray:none"
     d="m 8471.67,3750.83 -87.5,0 0,-88.33 87.5,0 0,88.33" /><path
     transform="matrix(0.16170837,0,0,0.1528461,-489.31291,-48.91894)"
     inkscape:connector-curvature="0"
     id="path362"
     style="fill:none;stroke:#7f7f7f;stroke-width:20;stroke-linecap:round;stroke-linejoin:round;stroke-miterlimit:10;stroke-opacity:1;stroke-dasharray:none"
     d="m 7856.67,3913.33 -88.34,0 0,-88.33 88.34,0 0,88.33" /><path
     transform="matrix(0.16170837,0,0,0.1528461,-489.31291,-48.91894)"
     inkscape:connector-curvature="0"
     id="path364"
     style="fill:none;stroke:#bcbd22;stroke-width:20;stroke-linecap:round;stroke-linejoin:round;stroke-miterlimit:10;stroke-opacity:1;stroke-dasharray:none"
     d="m 7415,4536.67 -88.33,0 0,-87.5 88.33,0 0,87.5" /><path
     transform="matrix(0.16170837,0,0,0.1528461,-489.31291,-48.91894)"
     inkscape:connector-curvature="0"
     id="path366"
     style="fill:none;stroke:#17becf;stroke-width:20;stroke-linecap:round;stroke-linejoin:round;stroke-miterlimit:10;stroke-opacity:1;stroke-dasharray:none"
     d="m 7122.5,3241.67 -88.33,0 0,-88.34 88.33,0 0,88.34" /><g
     transform="translate(407.1028,188.74766)"
     id="g3156"><path
       id="path378-6"
       style="fill:none;stroke:#474747;stroke-width:20;stroke-linecap:round;stroke-linejoin:round;stroke-miterlimit:10;stroke-opacity:1;stroke-dasharray:none"
       d="m 10380,4787.5 0,6.67 -0.8,2.5 0,2.5 -0.9,2.5 -0.8,2.5 -0.8,2.5 -0.9,1.66 -1.6,2.5 -0.9,2.5 -1.6,1.67 -1.7,1.67 -0.8,2.5 -1.7,1.66 -1.7,1.67 -2.5,1.67 -1.6,1.66 -1.7,1.67 -2.5,1.67 -1.7,0.83 -2.5,1.67 -1.6,0.83 -2.5,0.83 -2.5,0.84 -2.5,0.83 -1.7,0.83 -2.5,0 -2.5,0.84 -15,0 -2.5,-0.84 -2.5,-0.83 -1.7,-0.83 -2.5,0 -2.5,-1.67 -2.5,-0.83 -1.6,-0.84 -2.5,-1.66 -1.7,-0.84 -2.5,-1.66 -1.7,-1.67 -1.6,-1.67 -1.7,-1.66 -1.7,-1.67 -1.6,-1.67 -1.7,-2.5 -1.7,-1.66 -0.8,-2.5 -1.7,-1.67 -0.8,-2.5 -0.8,-2.5 -0.9,-1.67 -0.8,-2.5 -0.8,-2.5 0,-2.5 -0.9,-2.5 0,-12.5 0.9,-2.5 0,-2.5 0.8,-1.66 0.8,-2.5 0.9,-2.5 0.8,-2.5 0.8,-1.67 1.7,-2.5 0.8,-2.5 1.7,-1.67 1.7,-1.66 1.6,-2.5 1.7,-1.67 1.7,-1.67 1.6,-1.66 1.7,-1.67 2.5,-0.83 1.7,-1.67 2.5,-1.67 1.6,-0.83 2.5,-0.83 2.5,-0.84 2.5,-0.83 1.7,-0.83 2.5,-0.84 2.5,0 2.5,-0.83 10,0 2.5,0.83 2.5,0 2.5,0.84 1.7,0 2.5,0.83 2.5,0.83 2.5,0.84 1.6,1.66 2.5,0.84 1.7,1.66 2.5,0.84 1.7,1.66 1.6,1.67 2.5,1.67 1.7,1.66 1.7,2.5 0.8,1.67 1.7,1.67 1.6,2.5 0.9,1.66 1.6,2.5 0.9,2.5 0.8,1.67 0.8,2.5 0.9,2.5 0,2.5 0.8,2.5 0,7.5"
       transform="matrix(0.1,0,0,0.1,-533.29381,-3.6679938)"
       inkscape:connector-curvature="0" /><path
       id="path442-2"
       style="fill:none;stroke:#474747;stroke-width:20;stroke-linecap:round;stroke-linejoin:round;stroke-miterlimit:10;stroke-opacity:1;stroke-dasharray:none"
       d="m 10047.5,4256.67 -87.5,0 0,-88.34 87.5,0 0,88.34"
       transform="matrix(0.1,0,0,0.1,-500.65397,37.268243)"
       inkscape:connector-curvature="0" /><path
       id="path400-0"
       style="fill:none;stroke:#474747;stroke-width:20;stroke-linecap:round;stroke-linejoin:round;stroke-miterlimit:10;stroke-opacity:1;stroke-dasharray:none"
       d="m 8952.5,4231.67 -53.33,-93.34 106.66,0 -53.33,93.34"
       transform="matrix(0.1,0,0,0.1,-395.61063,22.985463)"
       inkscape:connector-curvature="0" /><path
       id="path420-3"
       style="fill:none;stroke:#474747;stroke-width:20;stroke-linecap:round;stroke-linejoin:round;stroke-miterlimit:10;stroke-opacity:1;stroke-dasharray:none"
       d="m 8849.17,3955.83 54.16,92.5 -107.5,0 53.34,-92.5"
       transform="matrix(0.1,0,0,0.1,-385.59663,22.894929)"
       inkscape:connector-curvature="0" /><text
       transform="matrix(0.8,0,0,-0.8,-456.46907,638.74081)"
       sodipodi:linespacing="125%"
       id="text3521-8"
       y="231.06767"
       x="1210.868"
       style="font-size:40px;font-style:normal;font-variant:normal;font-weight:200;font-stretch:normal;text-align:start;line-height:125%;letter-spacing:0px;word-spacing:0px;writing-mode:lr-tb;text-anchor:start;fill:#333333;fill-opacity:1;stroke:none;font-family:Helvetica Neue, Helvetica, Arial, sans-serif;-inkscape-font-specification:Arial"
       xml:space="preserve"><tspan
         style="font-size:20px;fill:#333333"
         y="231.06767"
         x="1210.868"
         id="tspan3523-4"
         sodipodi:role="line">Color Names</tspan></text>
<text
       transform="matrix(0.8,0,0,-0.8,-456.46907,621.95817)"
       sodipodi:linespacing="125%"
       id="text3521-8-0"
       y="231.06767"
       x="1210.868"
       style="font-size:18px;font-style:normal;font-variant:normal;font-weight:200;font-stretch:normal;text-align:start;line-height:125%;letter-spacing:0px;word-spacing:0px;writing-mode:lr-tb;text-anchor:start;fill:#333333;fill-opacity:1;stroke:none;font-family:Helvetica Neue, Helvetica, Arial, sans-serif;-inkscape-font-specification:Arial"
       xml:space="preserve"><tspan
         style="font-size:18px;font-style:normal;font-variant:normal;font-weight:200;font-stretch:normal;text-align:start;line-height:125%;writing-mode:lr-tb;text-anchor:start;fill:#333333;font-family:Helvetica Neue, Helvetica, Arial, sans-serif;-inkscape-font-specification:Arial"
         y="231.06767"
         x="1210.868"
         id="tspan3523-4-0"
         sodipodi:role="line">CIELAB</tspan></text>
<text
       transform="matrix(0.8,0,0,-0.8,-456.46907,603.13376)"
       sodipodi:linespacing="125%"
       id="text3521-8-0-9"
       y="231.06767"
       x="1210.868"
       style="font-size:18px;font-style:normal;font-variant:normal;font-weight:200;font-stretch:normal;text-align:start;line-height:125%;letter-spacing:0px;word-spacing:0px;writing-mode:lr-tb;text-anchor:start;fill:#333333;fill-opacity:1;stroke:none;font-family:Helvetica Neue, Helvetica, Arial, sans-serif;-inkscape-font-specification:Arial"
       xml:space="preserve"><tspan
         style="font-size:18px;font-style:normal;font-variant:normal;font-weight:200;font-stretch:normal;text-align:start;line-height:125%;writing-mode:lr-tb;text-anchor:start;fill:#333333;font-family:Helvetica Neue, Helvetica, Arial, sans-serif;-inkscape-font-specification:Arial"
         y="231.06767"
         x="1210.868"
         id="tspan3523-4-0-3"
         sodipodi:role="line">CIEDE2000</tspan></text>
<text
       transform="matrix(0.8,0,0,-0.8,-455.09937,655.9941)"
       sodipodi:linespacing="125%"
       id="text3521-8-4"
       y="231.06767"
       x="1210.868"
       style="font-size:18px;font-style:normal;font-variant:normal;font-weight:200;font-stretch:normal;text-align:start;line-height:125%;letter-spacing:0px;word-spacing:0px;writing-mode:lr-tb;text-anchor:start;fill:#333333;fill-opacity:1;stroke:none;font-family:Helvetica Neue, Helvetica, Arial, sans-serif;-inkscape-font-specification:Arial"
       xml:space="preserve"><tspan
         style="font-size:18px;font-style:normal;font-variant:normal;font-weight:200;font-stretch:normal;text-align:start;line-height:125%;writing-mode:lr-tb;text-anchor:start;fill:#333333;font-family:Helvetica Neue, Helvetica, Arial, sans-serif;-inkscape-font-specification:Arial"
         y="231.06767"
         x="1210.868"
         id="tspan3523-4-5"
         sodipodi:role="line">Kernel (Tm)</tspan></text>
</g></g>
</g></g></svg>
