<?xml version="1.0" encoding="UTF-8" standalone="no"?>
<!-- Created with Inkscape (http://www.inkscape.org/) -->

<svg
   xmlns:dc="http://purl.org/dc/elements/1.1/"
   xmlns:cc="http://creativecommons.org/ns#"
   xmlns:rdf="http://www.w3.org/1999/02/22-rdf-syntax-ns#"
   xmlns:svg="http://www.w3.org/2000/svg"
   xmlns="http://www.w3.org/2000/svg"
   xmlns:sodipodi="http://sodipodi.sourceforge.net/DTD/sodipodi-0.dtd"
   xmlns:inkscape="http://www.inkscape.org/namespaces/inkscape"
   id="svg3004"
   version="1.1"
   inkscape:version="0.48.5 r10040"
   width="648.75"
   height="195"
   xml:space="preserve"
   sodipodi:docname="f.svg"><metadata
     id="metadata3010"><rdf:RDF><cc:Work
         rdf:about=""><dc:format>image/svg+xml</dc:format><dc:type
           rdf:resource="http://purl.org/dc/dcmitype/StillImage" /><dc:title></dc:title></cc:Work></rdf:RDF></metadata><defs
     id="defs3008"><marker
       inkscape:stockid="Arrow1Mstart"
       orient="auto"
       refY="0.0"
       refX="0.0"
       id="Arrow1Mstart"
       style="overflow:visible"><path
         id="path4333"
         d="M 0.0,0.0 L 5.0,-5.0 L -12.5,0.0 L 5.0,5.0 L 0.0,0.0 z "
         style="fill-rule:evenodd;stroke:#000000;stroke-width:1.0pt"
         transform="scale(0.4) translate(10,0)" /></marker><marker
       inkscape:stockid="Arrow1Lstart"
       orient="auto"
       refY="0.0"
       refX="0.0"
       id="Arrow1Lstart"
       style="overflow:visible"><path
         id="path4327"
         d="M 0.0,0.0 L 5.0,-5.0 L -12.5,0.0 L 5.0,5.0 L 0.0,0.0 z "
         style="fill-rule:evenodd;stroke:#000000;stroke-width:1.0pt"
         transform="scale(0.8) translate(12.5,0)" /></marker><marker
       inkscape:stockid="Arrow2Lend"
       orient="auto"
       refY="0.0"
       refX="0.0"
       id="Arrow2Lend"
       style="overflow:visible;"><path
         id="path4348"
         style="fill-rule:evenodd;stroke-width:0.62500000;stroke-linejoin:round;"
         d="M 8.7185878,4.0337352 L -2.2072895,0.016013256 L 8.7185884,-4.0017078 C 6.9730900,-1.6296469 6.9831476,1.6157441 8.7185878,4.0337352 z "
         transform="scale(1.1) rotate(180) translate(1,0)" /></marker><marker
       inkscape:stockid="Arrow1Lend"
       orient="auto"
       refY="0.0"
       refX="0.0"
       id="Arrow1Lend"
       style="overflow:visible;"><path
         id="path4330"
         d="M 0.0,0.0 L 5.0,-5.0 L -12.5,0.0 L 5.0,5.0 L 0.0,0.0 z "
         style="fill-rule:evenodd;stroke:#000000;stroke-width:1.0pt;"
         transform="scale(0.8) rotate(180) translate(12.5,0)" /></marker><clipPath
       clipPathUnits="userSpaceOnUse"
       id="clipPath3020"><path
         d="M 0,0 519,0 519,156 0,156 0,0 z"
         id="path3022" /></clipPath><clipPath
       clipPathUnits="userSpaceOnUse"
       id="clipPath3042"><path
         d="m 216.5381,103.9719 92.6325,0 0,-34.87347 -92.6325,0 0,34.87347 z"
         id="path3044" /></clipPath><clipPath
       clipPathUnits="userSpaceOnUse"
       id="clipPath3048"><path
         d="m 216.5381,69.09843 92.63243,0 0,34.87347 -92.63243,0 0,-34.87347 z"
         id="path3050" /></clipPath><clipPath
       clipPathUnits="userSpaceOnUse"
       id="clipPath3086"><path
         d="m 0.1315748,155.1744 25.4285052,0 0,-31.604 -25.4285052,0 0,31.604 z"
         id="path3088" /></clipPath><clipPath
       clipPathUnits="userSpaceOnUse"
       id="clipPath3092"><path
         d="m 0.1315748,123.5704 25.4285002,0 0,31.60401 -25.4285002,0 0,-31.60401 z"
         id="path3094" /></clipPath><clipPath
       clipPathUnits="userSpaceOnUse"
       id="clipPath3106"><path
         d="m 115.5637,71.31567 12.7326,0 0,-20.16 -12.7326,0 0,20.16 z"
         id="path3108" /></clipPath><clipPath
       clipPathUnits="userSpaceOnUse"
       id="clipPath3112"><path
         d="m 115.5637,51.15567 12.7326,0 0,20.16 -12.7326,0 0,-20.16 z"
         id="path3114" /></clipPath><clipPath
       clipPathUnits="userSpaceOnUse"
       id="clipPath3132"><path
         d="M 0,0 519,0 519,156 0,156 0,0 z"
         id="path3134" /></clipPath><clipPath
       clipPathUnits="userSpaceOnUse"
       id="clipPath3142"><path
         d="m 69.9315,27.47827 14.76503,0 0,-20.159999 -14.76503,0 0,20.159999 z"
         id="path3144" /></clipPath><clipPath
       clipPathUnits="userSpaceOnUse"
       id="clipPath3148"><path
         d="m 69.9315,7.318271 14.76503,0 0,20.16 -14.76503,0 0,-20.16 z"
         id="path3150" /></clipPath><clipPath
       clipPathUnits="userSpaceOnUse"
       id="clipPath3168"><path
         d="M 0,0 519,0 519,156 0,156 0,0 z"
         id="path3170" /></clipPath><clipPath
       clipPathUnits="userSpaceOnUse"
       id="clipPath3178"><path
         d="m 76.13244,139.1562 12.7252,0 0,-20.16 -12.7252,0 0,20.16 z"
         id="path3180" /></clipPath><clipPath
       clipPathUnits="userSpaceOnUse"
       id="clipPath3184"><path
         d="m 76.13244,118.9962 12.7252,0 0,20.16 -12.7252,0 0,-20.16 z"
         id="path3186" /></clipPath><clipPath
       clipPathUnits="userSpaceOnUse"
       id="clipPath3204"><path
         d="M 0,0 519,0 519,156 0,156 0,0 z"
         id="path3206" /></clipPath><clipPath
       clipPathUnits="userSpaceOnUse"
       id="clipPath3214"><path
         d="m 57.76157,118.6057 14.76504,0 0,-20.15996 -14.76504,0 0,20.15996 z"
         id="path3216" /></clipPath><clipPath
       clipPathUnits="userSpaceOnUse"
       id="clipPath3220"><path
         d="m 57.76157,98.44574 14.76504,0 0,20.16 -14.76504,0 0,-20.16 z"
         id="path3222" /></clipPath><clipPath
       clipPathUnits="userSpaceOnUse"
       id="clipPath3240"><path
         d="M 0,0 519,0 519,156 0,156 0,0 z"
         id="path3242" /></clipPath><clipPath
       clipPathUnits="userSpaceOnUse"
       id="clipPath3268"><path
         d="m 313.5547,155.731 19.9796,0 0,-31.6041 -19.9796,0 0,31.6041 z"
         id="path3270" /></clipPath><clipPath
       clipPathUnits="userSpaceOnUse"
       id="clipPath3274"><path
         d="m 313.5547,124.1269 19.97961,0 0,31.6041 -19.97961,0 0,-31.6041 z"
         id="path3276" /></clipPath><clipPath
       clipPathUnits="userSpaceOnUse"
       id="clipPath3288"><path
         d="m 435.9065,93.40268 12.9504,0 0,-20.16 -12.9504,0 0,20.16 z"
         id="path3290" /></clipPath><clipPath
       clipPathUnits="userSpaceOnUse"
       id="clipPath3294"><path
         d="m 435.9065,73.24268 12.95044,0 0,20.16 -12.95044,0 0,-20.16 z"
         id="path3296" /></clipPath><clipPath
       clipPathUnits="userSpaceOnUse"
       id="clipPath3314"><path
         d="M 0,0 519,0 519,156 0,156 0,0 z"
         id="path3316" /></clipPath><clipPath
       clipPathUnits="userSpaceOnUse"
       id="clipPath3324"><path
         d="m 435.5581,39.29897 13.7713,0 0,-20.16 -13.7713,0 0,20.16 z"
         id="path3326" /></clipPath><clipPath
       clipPathUnits="userSpaceOnUse"
       id="clipPath3330"><path
         d="m 435.5581,19.13897 13.77127,0 0,20.16 -13.77127,0 0,-20.16 z"
         id="path3332" /></clipPath><clipPath
       clipPathUnits="userSpaceOnUse"
       id="clipPath3350"><path
         d="M 0,0 519,0 519,156 0,156 0,0 z"
         id="path3352" /></clipPath><clipPath
       clipPathUnits="userSpaceOnUse"
       id="clipPath3360"><path
         d="m 355.6371,144.5535 12.725,0 0,-20.16 -12.725,0 0,20.16 z"
         id="path3362" /></clipPath><clipPath
       clipPathUnits="userSpaceOnUse"
       id="clipPath3366"><path
         d="m 355.6371,124.3935 12.72504,0 0,20.16 -12.72504,0 0,-20.16 z"
         id="path3368" /></clipPath><clipPath
       clipPathUnits="userSpaceOnUse"
       id="clipPath3386"><path
         d="M 0,0 519,0 519,156 0,156 0,0 z"
         id="path3388" /></clipPath><clipPath
       clipPathUnits="userSpaceOnUse"
       id="clipPath3396"><path
         d="m 353.9546,122.7579 13.6293,0 0,-20.16 -13.6293,0 0,20.16 z"
         id="path3398" /></clipPath><clipPath
       clipPathUnits="userSpaceOnUse"
       id="clipPath3402"><path
         d="m 353.9546,102.5979 13.6293,0 0,20.16 -13.6293,0 0,-20.16 z"
         id="path3404" /></clipPath><clipPath
       clipPathUnits="userSpaceOnUse"
       id="clipPath3422"><path
         d="M 0,0 519,0 519,156 0,156 0,0 z"
         id="path3424" /></clipPath></defs><sodipodi:namedview
     pagecolor="#ffffff"
     bordercolor="#666666"
     borderopacity="1"
     objecttolerance="10"
     gridtolerance="10"
     guidetolerance="10"
     inkscape:pageopacity="0"
     inkscape:pageshadow="2"
     inkscape:window-width="1250"
     inkscape:window-height="854"
     id="namedview3006"
     showgrid="false"
     inkscape:zoom="3.0621447"
     inkscape:cx="592.45313"
     inkscape:cy="114.57823"
     inkscape:window-x="0"
     inkscape:window-y="0"
     inkscape:window-maximized="0"
     inkscape:current-layer="g3420" /><g
     id="g3012"
     inkscape:groupmode="layer"
     inkscape:label="f"
     transform="matrix(1.25,0,0,-1.25,0,195)"><g
       id="g3014" /><g
       id="g3016"><g
         id="g3018"
         clip-path="url(#clipPath3020)"><path
           d="M 0,156 519,156 519,0 0,0 0,156 z"
           style="fill:#ffffff;fill-opacity:0;fill-rule:evenodd;stroke:none"
           id="path3024" /><path
           d="M 116.2191,148.3266 C 86.34359,149.3622 32.71535,140.3865 19.3083,117.2568 5.90126,94.12713 9.068326,25.42854 35.77687,9.548475 62.4854,-6.331584 152.4287,5.060621 179.5595,21.97638 c 27.1308,16.91576 29.77,68.2383 19.0022,89.06652 -10.7679,20.8282 -52.467,36.2481 -82.3426,37.2837 z"
           style="fill:#e0e0e0;fill-opacity:1;fill-rule:evenodd;stroke:none"
           id="path3026" /><g
           id="g3028"
           transform="matrix(7.874016e-5,0,0,-7.874016e-5,5.90126,149.3622)"><path
             d="M 1401037,13152.45 C 1021618,-0.0380249 340538.9,113990.9 170269.5,407738.1 7.190704e-4,701485.3 40221.74,1573957 379420.2,1775634 718618.6,1977311 1860899,1832630 2205460,1617800 2550021,1402970 2583539,751173.5 2446787,486655.2 2310036,222136.8 1780456,26304.75 1401037,13152.45 z"
             style="fill:none;stroke:#000000;stroke-opacity:1;stroke-width:25400;stroke-linecap:butt;stroke-linejoin:round;stroke-miterlimit:10;stroke-dasharray:none"
             id="path3030" /></g><g
           id="g3032"
           transform="translate(13.10126,90.71532)"><text
             transform="matrix(1,0,0,-1,43.8006,-20)"
             id="text3034"><tspan
               style="fill:#262626;fill-opacity:1;fill-rule:nonzero;stroke:none;font-family:Avenir;font-variant:normal;font-weight:300;font-size:20;writing-mode:lr;-inkscape-font-specification:Avenir-Light"
               x="0 14.82 25.2 31.86 42.24 47.44 58.92 70.8 75.6 86.72 93.38"
               y="0"
               sodipodi:role="line"
               id="tspan3036">Data Points</tspan></text>
</g></g></g><g
       id="g3038"><g
         id="g3040"
         clip-path="url(#clipPath3042)"><g
           id="g3046"
           clip-path="url(#clipPath3048)"><g
             id="g3052"
             transform="matrix(0.05676007,0,0,0.06811223,220.1708,79.99638)"><text
               transform="matrix(1,0,0,-1,53,0)"
               id="text3054"><tspan
                 style="fill:#000000;fill-opacity:1;fill-rule:nonzero;stroke:none;font-family:Times;font-style:italic;font-variant:normal;font-size:384;writing-mode:lr;-inkscape-font-specification:Times-Italic"
                 x="0"
                 y="0"
                 id="tspan3056">f</tspan></text>
</g><g
             id="g3058"
             transform="matrix(0.05676007,0,0,0.06811223,220.1708,79.99638)"><text
               transform="matrix(1,0,0,-1,292,0)"
               id="text3060"><tspan
                 style="fill:#000000;fill-opacity:1;fill-rule:nonzero;stroke:none;font-family:Times;font-variant:normal;font-weight:normal;font-size:384;writing-mode:lr;-inkscape-font-specification:Times-Roman"
                 x="0"
                 y="0"
                 id="tspan3062">:</tspan></text>
</g><g
             id="g3064"
             transform="matrix(0.05676007,0,0,0.06811223,220.1708,79.99638)"><text
               transform="matrix(1,0,0,-1,474,0)"
               id="text3066"><tspan
                 style="fill:#000000;fill-opacity:1;fill-rule:nonzero;stroke:none;font-family:Times;font-style:italic;font-variant:normal;font-size:384;writing-mode:lr;-inkscape-font-specification:Times-Italic"
                 x="0"
                 y="0"
                 id="tspan3068">X</tspan></text>
</g><g
             id="g3070"
             transform="matrix(0.05676007,0,0,0.06811223,220.1708,79.99638)"><text
               transform="matrix(1,0,0,-1,806,0)"
               id="text3072"><tspan
                 style="fill:#000000;fill-opacity:1;fill-rule:nonzero;stroke:none;font-family:Symbol;font-variant:normal;font-weight:normal;font-size:384;writing-mode:lr;-inkscape-font-specification:Symbol"
                 x="0"
                 y="0"
                 id="tspan3074">→</tspan></text>
</g><g
             id="g3076"
             transform="matrix(0.05676007,0,0,0.06811223,220.1708,79.99638)"><text
               transform="matrix(1,0,0,-1,1237,0)"
               id="text3078"><tspan
                 style="fill:#000000;fill-opacity:1;fill-rule:nonzero;stroke:none;font-family:Times;font-style:italic;font-variant:normal;font-size:384;writing-mode:lr;-inkscape-font-specification:Times-Italic"
                 x="0"
                 y="0"
                 id="tspan3080">Y</tspan></text>
</g></g></g></g><g
       id="g3082"><g
         id="g3084"
         clip-path="url(#clipPath3086)"><g
           id="g3090"
           clip-path="url(#clipPath3092)"><g
             id="g3096"
             transform="matrix(0.07884318,0,0,0.1055296,0.1315748,123.5704)"><text
               transform="matrix(1,0,0,-1,63.501,45.478)"
               id="text3098"><tspan
                 style="fill:#000000;fill-opacity:1;fill-rule:nonzero;stroke:none;font-family:Times New Roman;font-style:italic;font-variant:normal;font-size:277.09;writing-mode:lr;-inkscape-font-specification:TimesNewRomanPS-ItalicMT"
                 x="0"
                 y="0"
                 id="tspan3100">X</tspan></text>
</g></g></g></g><g
       id="g3102"><g
         id="g3104"
         clip-path="url(#clipPath3106)"><g
           id="g3110"
           clip-path="url(#clipPath3112)"><g
             id="g3116"
             transform="matrix(0.03060721,0,0,0.03705882,117.5226,58.27096)"><text
               transform="matrix(1,0,0,-1,10,0)"
               id="text3118"><tspan
                 style="fill:#000000;fill-opacity:1;fill-rule:nonzero;stroke:none;font-family:Times;font-style:italic;font-variant:normal;font-size:384;writing-mode:lr;-inkscape-font-specification:Times-Italic"
                 x="0"
                 y="0"
                 id="tspan3120">x</tspan></text>
</g><g
             id="g3122"
             transform="matrix(0.03060721,0,0,0.03705882,117.5226,54.71331)"><text
               transform="matrix(1,0,0,-1,182,0)"
               id="text3124"><tspan
                 style="fill:#000000;fill-opacity:1;fill-rule:nonzero;stroke:none;font-family:Times;font-variant:normal;font-weight:normal;font-size:222;writing-mode:lr;-inkscape-font-specification:Times-Roman"
                 x="0"
                 y="0"
                 id="tspan3126">3</tspan></text>
</g></g></g></g><g
       id="g3128"><g
         id="g3130"
         clip-path="url(#clipPath3132)"><path
           d="m 130.4268,53.84449 c 0,0.96297 0.7806,1.74362 1.7436,1.74362 0.963,0 1.7436,-0.78065 1.7436,-1.74362 0,-0.96297 -0.7806,-1.74362 -1.7436,-1.74362 -0.963,0 -1.7436,0.78065 -1.7436,1.74362 z"
           style="fill:#000000;fill-opacity:1;fill-rule:evenodd;stroke:none"
           id="path3136" /></g></g><g
       id="g3138"><g
         id="g3140"
         clip-path="url(#clipPath3142)"><g
           id="g3146"
           clip-path="url(#clipPath3148)"><g
             id="g3152"
             transform="matrix(0.03295768,0,0,0.039375,72.04079,13.61827)"><text
               transform="matrix(1,0,0,-1,10,0)"
               id="text3154"><tspan
                 style="fill:#000000;fill-opacity:1;fill-rule:nonzero;stroke:none;font-family:Times;font-style:italic;font-variant:normal;font-size:384;writing-mode:lr;-inkscape-font-specification:Times-Italic"
                 x="0"
                 y="0"
                 id="tspan3156">x</tspan></text>
</g><g
             id="g3158"
             transform="matrix(0.03295768,0,0,0.039375,72.04079,9.838271)"><text
               transform="matrix(1,0,0,-1,190,0)"
               id="text3160"><tspan
                 style="fill:#000000;fill-opacity:1;fill-rule:nonzero;stroke:none;font-family:Times;font-variant:normal;font-weight:normal;font-size:222;writing-mode:lr;-inkscape-font-specification:Times-Roman"
                 x="0"
                 y="0"
                 id="tspan3162">4</tspan></text>
</g></g></g></g><g
       id="g3164"><g
         id="g3166"
         clip-path="url(#clipPath3168)"><path
           d="m 86.46425,8.432755 c 0,0.962975 0.78065,1.743625 1.74362,1.743625 0.96298,0 1.74362,-0.78065 1.74362,-1.743625 0,-0.962976 -0.78064,-1.743623 -1.74362,-1.743623 -0.96297,0 -1.74362,0.780647 -1.74362,1.743623 z"
           style="fill:#000000;fill-opacity:1;fill-rule:evenodd;stroke:none"
           id="path3172" /></g></g><g
       id="g3174"><g
         id="g3176"
         clip-path="url(#clipPath3178)"><g
           id="g3182"
           clip-path="url(#clipPath3184)"><g
             id="g3188"
             transform="matrix(0.03313853,0,0,0.039375,78.2533,125.2962)"><text
               transform="matrix(1,0,0,-1,10,0)"
               id="text3190"><tspan
                 style="fill:#000000;fill-opacity:1;fill-rule:nonzero;stroke:none;font-family:Times;font-style:italic;font-variant:normal;font-size:384;writing-mode:lr;-inkscape-font-specification:Times-Italic"
                 x="0"
                 y="0"
                 id="tspan3192">x</tspan></text>
</g><g
             id="g3194"
             transform="matrix(0.03313853,0,0,0.039375,78.2533,121.5162)"><text
               transform="matrix(1,0,0,-1,165,0)"
               id="text3196"><tspan
                 style="fill:#000000;fill-opacity:1;fill-rule:nonzero;stroke:none;font-family:Times;font-variant:normal;font-weight:normal;font-size:222;writing-mode:lr;-inkscape-font-specification:Times-Roman"
                 x="0"
                 y="0"
                 id="tspan3198">1</tspan></text>
</g></g></g></g><g
       id="g3200"><g
         id="g3202"
         clip-path="url(#clipPath3204)"><path
           d="m 86.62418,117.8273 c 0,0.963 0.78064,1.7436 1.74362,1.7436 0.96297,0 1.74362,-0.7806 1.74362,-1.7436 0,-0.963 -0.78065,-1.7436 -1.74362,-1.7436 -0.96298,0 -1.74362,0.7806 -1.74362,1.7436 z"
           style="fill:#000000;fill-opacity:1;fill-rule:evenodd;stroke:none"
           id="path3208" /></g></g><g
       id="g3210"><g
         id="g3212"
         clip-path="url(#clipPath3214)"><g
           id="g3218"
           clip-path="url(#clipPath3220)"><g
             id="g3224"
             transform="matrix(0.03295768,0,0,0.039375,59.87086,104.7457)"><text
               transform="matrix(1,0,0,-1,10,0)"
               id="text3226"><tspan
                 style="fill:#000000;fill-opacity:1;fill-rule:nonzero;stroke:none;font-family:Times;font-style:italic;font-variant:normal;font-size:384;writing-mode:lr;-inkscape-font-specification:Times-Italic"
                 x="0"
                 y="0"
                 id="tspan3228">x</tspan></text>
</g><g
             id="g3230"
             transform="matrix(0.03295768,0,0,0.039375,59.87086,100.9657)"><text
               transform="matrix(1,0,0,-1,187,0)"
               id="text3232"><tspan
                 style="fill:#000000;fill-opacity:1;fill-rule:nonzero;stroke:none;font-family:Times;font-variant:normal;font-weight:normal;font-size:222;writing-mode:lr;-inkscape-font-specification:Times-Roman"
                 x="0"
                 y="0"
                 id="tspan3234">2</tspan></text>
</g></g></g></g><g
       id="g3236"><g
         id="g3238"
         clip-path="url(#clipPath3240)"><path
           d="m 74.93858,105.5394 c 0,0.963 0.78065,1.7437 1.74363,1.7437 0.96297,0 1.74362,-0.7807 1.74362,-1.7437 0,-0.9629 -0.78065,-1.7436 -1.74362,-1.7436 -0.96298,0 -1.74363,0.7807 -1.74363,1.7436 z"
           style="fill:#000000;fill-opacity:1;fill-rule:evenodd;stroke:none"
           id="path3244" /><path
           d="M 422.5408,154.1388 C 392.6652,155.1744 339.037,146.1987 325.6299,123.069 312.2229,99.93934 315.39,31.24076 342.0985,15.36069 c 26.7085,-15.8800639 116.6519,-4.48786 143.7827,12.4279 27.1308,16.91576 29.77,68.2383 19.0021,89.06651 -10.7679,20.8282 -52.467,36.2481 -82.3425,37.2837 z"
           style="fill:#e0e0e0;fill-opacity:1;fill-rule:evenodd;stroke:none"
           id="path3246" /><g
           id="g3248"
           transform="matrix(7.874016e-5,0,0,-7.874016e-5,312.2229,155.1744)"><path
             d="M 1401037,13152.51 C 1021618,0.0189209 340539,113990.9 170269.5,407738.1 0.08496094,701485.4 40221.66,1573957 379420.3,1775634 718618.6,1977311 1860899,1832630 2205460,1617800 2550021,1402970 2583539,751173.6 2446788,486655.2 2310036,222136.8 1780456,26304.81 1401037,13152.51 z"
             style="fill:none;stroke:#000000;stroke-opacity:1;stroke-width:25400;stroke-linecap:butt;stroke-linejoin:round;stroke-miterlimit:10;stroke-dasharray:none"
             id="path3250" /></g><g
           id="g3252"
           transform="translate(373.4229,101.3275)"><text
             transform="matrix(1,0,0,-1,0,-20)"
             id="text3254"><tspan
               style="fill:#262626;fill-opacity:1;fill-rule:nonzero;stroke:none;font-family:Avenir;font-variant:normal;font-weight:300;font-size:20;writing-mode:lr;-inkscape-font-specification:Avenir-Light"
               x="0 11.98 16.78 25.3 36.42 46.8 51.6"
               y="0"
               sodipodi:role="line"
               id="tspan3256">Visual </tspan></text>
</g><g
           id="g3258"
           transform="translate(359.4229,77.32751)"><text
             transform="matrix(1,0,0,-1,0,-20)"
             id="text3260"><tspan
               style="fill:#262626;fill-opacity:1;fill-rule:nonzero;stroke:none;font-family:Avenir;font-variant:normal;font-weight:300;font-size:20;writing-mode:lr;-inkscape-font-specification:Avenir-Light"
               x="0 10.76 21.14 27.8 32.6 42.98 55.2 60 71.12"
               y="0"
               sodipodi:role="line"
               id="tspan3262">Variables</tspan></text>
</g></g></g><g
       id="g3264"><g
         id="g3266"
         clip-path="url(#clipPath3268)"><g
           id="g3272"
           clip-path="url(#clipPath3274)"><g
             id="g3278"
             transform="matrix(0.07884301,0,0,0.1055299,313.5547,124.1269)"><text
               transform="matrix(1,0,0,-1,24.551,45.478)"
               id="text3280"><tspan
                 style="fill:#000000;fill-opacity:1;fill-rule:nonzero;stroke:none;font-family:Times New Roman;font-style:italic;font-variant:normal;font-size:277.09;writing-mode:lr;-inkscape-font-specification:TimesNewRomanPS-ItalicMT"
                 x="0"
                 y="0"
                 id="tspan3282">Y</tspan></text>
</g></g></g></g><g
       id="g3284"><g
         id="g3286"
         clip-path="url(#clipPath3288)"><g
           id="g3292"
           clip-path="url(#clipPath3294)"><g
             id="g3298"
             transform="matrix(0.03113094,0,0,0.03705882,437.8988,80.35798)"><text
               transform="matrix(1,0,0,-1,10,0)"
               id="text3300"><tspan
                 style="fill:#000000;fill-opacity:1;fill-rule:nonzero;stroke:none;font-family:Times;font-style:italic;font-variant:normal;font-size:384;writing-mode:lr;-inkscape-font-specification:Times-Italic"
                 x="0"
                 y="0"
                 id="tspan3302">y</tspan></text>
</g><g
             id="g3304"
             transform="matrix(0.03113094,0,0,0.03705882,437.8988,76.80033)"><text
               transform="matrix(1,0,0,-1,174,0)"
               id="text3306"><tspan
                 style="fill:#000000;fill-opacity:1;fill-rule:nonzero;stroke:none;font-family:Times;font-variant:normal;font-weight:normal;font-size:222;writing-mode:lr;-inkscape-font-specification:Times-Roman"
                 x="0"
                 y="0"
                 id="tspan3308">3</tspan></text>
</g></g></g></g><g
       id="g3310"><g
         id="g3312"
         clip-path="url(#clipPath3314)"><path
           d="m 449.5647,79.05598 c 0,0.96298 0.7807,1.74363 1.7436,1.74363 0.963,0 1.7437,-0.78065 1.7437,-1.74363 0,-0.96297 -0.7807,-1.74362 -1.7437,-1.74362 -0.9629,0 -1.7436,0.78065 -1.7436,1.74362 z"
           style="fill:#000000;fill-opacity:1;fill-rule:evenodd;stroke:none"
           id="path3318" /></g></g><g
       id="g3320"><g
         id="g3322"
         clip-path="url(#clipPath3324)"><g
           id="g3328"
           clip-path="url(#clipPath3330)"><g
             id="g3334"
             transform="matrix(0.03310399,0,0,0.039375,437.6768,25.43897)"><text
               transform="matrix(1,0,0,-1,10,0)"
               id="text3336"><tspan
                 style="fill:#000000;fill-opacity:1;fill-rule:nonzero;stroke:none;font-family:Times;font-style:italic;font-variant:normal;font-size:384;writing-mode:lr;-inkscape-font-specification:Times-Italic"
                 x="0"
                 y="0"
                 id="tspan3338">y</tspan></text>
</g><g
             id="g3340"
             transform="matrix(0.03310399,0,0,0.039375,437.6768,21.65897)"><text
               transform="matrix(1,0,0,-1,182,0)"
               id="text3342"><tspan
                 style="fill:#000000;fill-opacity:1;fill-rule:nonzero;stroke:none;font-family:Times;font-variant:normal;font-weight:normal;font-size:222;writing-mode:lr;-inkscape-font-specification:Times-Roman"
                 x="0"
                 y="0"
                 id="tspan3344">4</tspan></text>
</g></g></g></g><g
       id="g3346"><g
         id="g3348"
         clip-path="url(#clipPath3350)"><path
           d="m 449.5053,24.96985 c 0,0.96298 0.7807,1.74362 1.7437,1.74362 0.9629,0 1.7436,-0.78064 1.7436,-1.74362 0,-0.96298 -0.7807,-1.74362 -1.7436,-1.74362 -0.963,0 -1.7437,0.78064 -1.7437,1.74362 z"
           style="fill:#000000;fill-opacity:1;fill-rule:evenodd;stroke:none"
           id="path3354" /></g></g><g
       id="g3356"><g
         id="g3358"
         clip-path="url(#clipPath3360)"><g
           id="g3364"
           clip-path="url(#clipPath3366)"><g
             id="g3370"
             transform="matrix(0.03313812,0,0,0.039375,357.7579,130.6935)"><text
               transform="matrix(1,0,0,-1,10,0)"
               id="text3372"><tspan
                 style="fill:#000000;fill-opacity:1;fill-rule:nonzero;stroke:none;font-family:Times;font-style:italic;font-variant:normal;font-size:384;writing-mode:lr;-inkscape-font-specification:Times-Italic"
                 x="0"
                 y="0"
                 id="tspan3374">y</tspan></text>
</g><g
             id="g3376"
             transform="matrix(0.03313812,0,0,0.039375,357.7579,126.9135)"><text
               transform="matrix(1,0,0,-1,157,0)"
               id="text3378"><tspan
                 style="fill:#000000;fill-opacity:1;fill-rule:nonzero;stroke:none;font-family:Times;font-variant:normal;font-weight:normal;font-size:222;writing-mode:lr;-inkscape-font-specification:Times-Roman"
                 x="0"
                 y="0"
                 id="tspan3380">1</tspan></text>
</g></g></g></g><g
       id="g3382"><g
         id="g3384"
         clip-path="url(#clipPath3386)"><path
           d="m 367.2646,125.8207 c 0,0.963 0.7806,1.7436 1.7436,1.7436 0.963,0 1.7436,-0.7806 1.7436,-1.7436 0,-0.963 -0.7806,-1.7436 -1.7436,-1.7436 -0.963,0 -1.7436,0.7806 -1.7436,1.7436 z"
           style="fill:#000000;fill-opacity:1;fill-rule:evenodd;stroke:none"
           id="path3390" /></g></g><g
       id="g3392"><g
         id="g3394"
         clip-path="url(#clipPath3396)"><g
           id="g3400"
           clip-path="url(#clipPath3402)"><g
             id="g3406"
             transform="matrix(0.03276272,0,0,0.039375,356.0514,108.8979)"><text
               transform="matrix(1,0,0,-1,10,0)"
               id="text3408"><tspan
                 style="fill:#000000;fill-opacity:1;fill-rule:nonzero;stroke:none;font-family:Times;font-style:italic;font-variant:normal;font-size:384;writing-mode:lr;-inkscape-font-specification:Times-Italic"
                 x="0"
                 y="0"
                 id="tspan3410">y</tspan></text>
</g><g
             id="g3412"
             transform="matrix(0.03276272,0,0,0.039375,356.0514,105.1179)"><text
               transform="matrix(1,0,0,-1,179,0)"
               id="text3414"><tspan
                 style="fill:#000000;fill-opacity:1;fill-rule:nonzero;stroke:none;font-family:Times;font-variant:normal;font-weight:normal;font-size:222;writing-mode:lr;-inkscape-font-specification:Times-Roman"
                 x="0"
                 y="0"
                 id="tspan3416">2</tspan></text>
</g></g></g></g><g
       id="g3418"><g
         id="g3420"
         clip-path="url(#clipPath3422)"><path
           d="m 367.1937,113.223 c 0,0.963 0.7806,1.7436 1.7436,1.7436 0.963,0 1.7436,-0.7806 1.7436,-1.7436 0,-0.963 -0.7806,-1.7436 -1.7436,-1.7436 -0.963,0 -1.7436,0.7806 -1.7436,1.7436 z"
           style="fill:#000000;fill-opacity:1;fill-rule:evenodd;stroke:none"
           id="path3426" /><g
           id="g3428"
           transform="matrix(5.766585e-5,-5.361587e-5,-5.361587e-5,-5.766585e-5,131.2097,50.68343)"><path
             d="M 0.03379945,-0.07486847 C 47149.62,-0.01648511 85371.97,33773.82 85372.01,75435.96 l -0.02,226252.04 c 0.04,41662.1 38222.41,75435.9 85372.01,75435.9 -47149.6,0 -85371.96,33773.9 -85371.94,75436 l -0.01,219170 c -0.06,41662.2 -38222.39,75436 -85372.05200735,75436"
             style="fill:none;stroke:#000000;stroke-opacity:1;stroke-width:12700;stroke-linecap:butt;stroke-linejoin:round;stroke-miterlimit:10;stroke-dasharray:none"
             id="path3430" /></g><g
           id="g3432"
           transform="translate(123.9568,37.11716)"><text
             transform="matrix(1,0,0,-1,-2.612548,-23.657567)"
             id="text3434"><tspan
               style="font-size:9.60000038px;font-style:italic;font-variant:normal;writing-mode:lr-tb;fill:#000000;fill-opacity:1;fill-rule:nonzero;stroke:none;font-family:Helvetica;-inkscape-font-specification:Helvetica"
               sodipodi:role="line"
               id="tspan3436"
               x="0"
               y="0">large</tspan></text>
</g><g
           id="g3438"
           transform="matrix(5.766585e-5,-5.361587e-5,-5.361587e-5,-5.766585e-5,91.14562,115.0356)"><path
             d="M 0.03095111,-0.1133838 C 20378.25,-0.07517377 36898.04,14596.77 36898.02,32602.9 l 0.02,44609.94 c -0.02,18006.14 16519.84,32603.06 36897.99,32603.06 -20378.15,0 -36897.96,14596.9 -36897.99,32603 l -0.01,42548 c -0.02,18006.1 -16519.83,32603 -36898.04675355,32603"
             style="fill:none;stroke:#000000;stroke-opacity:1;stroke-width:12700;stroke-linecap:butt;stroke-linejoin:round;stroke-miterlimit:10;stroke-dasharray:none"
             id="path3440" /></g><g
           id="g3442"
           transform="translate(91.8311,117.8697)"><text
             transform="matrix(1,0,0,-1,-2.0900384,-18.693726)"
             id="text3444"
             style="font-size:9.60000038px;font-style:normal;font-variant:normal;font-weight:normal;font-stretch:normal;text-align:start;line-height:125%;writing-mode:lr-tb;text-anchor:start;font-family:Sans;-inkscape-font-specification:Sans"
             sodipodi:linespacing="125%"><tspan
               style="font-size:9.60000038px;font-style:italic;font-variant:normal;font-weight:normal;font-stretch:normal;text-align:start;line-height:125%;writing-mode:lr-tb;text-anchor:start;fill:#000000;fill-opacity:1;fill-rule:nonzero;stroke:none;font-family:Helvetica;-inkscape-font-specification:Helvetica Italic"
               x="0"
               sodipodi:role="line"
               id="tspan3446"
               y="0">small </tspan></text>
</g><g
           id="g3448"
           transform="matrix(7.874016e-5,0,0,-7.874016e-5,455.6288,76.38905)"><path
             d="M 0.1715088,-0.03997803 C 39762.86,-0.03997803 71997.33,28482.72 71997.33,63617.98 l 0,190805.02 c 0,35135.2 32234.07,63618 71996.77,63618 -39762.7,0 -71996.77,28482.7 -71996.77,63618 l 0,184831 c 0,35135.2 -32234.47,63617.9 -71997.1584912,63617.9"
             style="fill:none;stroke:#000000;stroke-opacity:1;stroke-width:12700;stroke-linecap:butt;stroke-linejoin:round;stroke-miterlimit:10;stroke-dasharray:none"
             id="path3450" /></g><g
           id="g3452"
           transform="matrix(7.874016e-5,0,0,-7.874016e-5,372.2998,125.4188)"><path
             d="M -0.09289551,-0.05517578 C 15356.72,-0.05517578 27805.96,10171.61 27805.96,22718.91 l 0,38483.02 c 0,12547.39 12449.24,22719.05 27806.06,22719.05 -15356.82,0 -27806.06,10171.57 -27806.06,22718.92 l 0,36906 c 0,12547.4 -12449.24,22719.1 -27806.05289551,22719.1"
             style="fill:none;stroke:#000000;stroke-opacity:1;stroke-width:12700;stroke-linecap:butt;stroke-linejoin:round;stroke-miterlimit:10;stroke-dasharray:none"
             id="path3454" /></g><g
           id="g3456"
           transform="translate(463.9898,75.01527)"><text
             transform="matrix(1,0,0,-1,4.1476056,-26.237644)"
             id="text3458"><tspan
               style="font-size:20px;font-style:italic;font-variant:normal;writing-mode:lr-tb;fill:#000000;fill-opacity:1;fill-rule:nonzero;stroke:none;font-family:Arial;-inkscape-font-specification:Arial-ItalicMT"
               x="0"
               sodipodi:role="line"
               id="tspan3460"
               y="0"><tspan
                 style="font-family:Helvetica;-inkscape-font-specification:Helvetica"
                 id="tspan6807"><tspan
                   style="font-size:12px"
                   id="tspan6809"><tspan
                     style="font-size:9.60000038px"
                     id="tspan6811">large </tspan></tspan></tspan></tspan></text>
</g><g
           id="g3462"
           transform="translate(378.0361,135.1295)"><text
             transform="matrix(1,0,0,-1,0,-20)"
             id="text3464"><tspan
               style="font-size:9.60000038px;font-style:italic;font-variant:normal;writing-mode:lr-tb;fill:#000000;fill-opacity:1;fill-rule:nonzero;stroke:none;font-family:Helvetica;-inkscape-font-specification:Helvetica"
               x="0"
               y="0"
               sodipodi:role="line"
               id="tspan3466">small</tspan></text>
</g><g
           id="g3468"
           transform="translate(379.6361,111.1295)" /><g
           id="g3474"
           transform="matrix(0,7.874016e-5,7.874016e-5,0,451.604,28.13409)"><path
             d="M -0.00317383,-0.1503906 602333.9,1.012329"
             style="fill:none;stroke:#000000;stroke-opacity:1;stroke-width:12700;stroke-linecap:butt;stroke-linejoin:round;stroke-miterlimit:10;stroke-dasharray:12700,38100;stroke-dashoffset:0"
             id="path3476" /></g><g
           id="g3478"
           transform="matrix(5.56777e-5,5.56777e-5,5.56777e-5,-5.56777e-5,89.37194,10.28729)"><path
             d="M 0.07175005,0.01450802 744112.1,1.076474"
             style="fill:none;stroke:#000000;stroke-opacity:1;stroke-width:12700;stroke-linecap:butt;stroke-linejoin:round;stroke-miterlimit:10;stroke-dasharray:12700,38100;stroke-dashoffset:0"
             id="path3480" /></g><g
           id="g3482"
           transform="matrix(0,7.874016e-5,7.874016e-5,0,75.57716,104.8736)"><path
             d="M 0.0592041,0.04144287 177157.1,177157.1"
             style="fill:none;stroke:#000000;stroke-opacity:1;stroke-width:12700;stroke-linecap:butt;stroke-linejoin:round;stroke-miterlimit:10;stroke-dasharray:12700,38100;stroke-dashoffset:0"
             id="path3484" /></g><g
           id="g3486"
           transform="matrix(-5.56777e-5,5.56777e-5,5.56777e-5,5.56777e-5,368.7301,112.758)"><path
             d="M -0.1020162,0.1477571 125723.9,125724.2"
             style="fill:none;stroke:#000000;stroke-opacity:1;stroke-width:12700;stroke-linecap:butt;stroke-linejoin:round;stroke-miterlimit:10;stroke-dasharray:12700,38100;stroke-dashoffset:0"
             id="path3488" /></g></g></g><path
       style="fill:none;stroke:#000000;stroke-width:2;stroke-linecap:round;stroke-linejoin:round;stroke-miterlimit:4;stroke-opacity:1;stroke-dasharray:none;marker-start:url(#Arrow1Mstart);marker-end:none"
       d="m 279.30988,115.19718 c 22.53256,0 45.06512,0 67.59768,0 0.93886,0 1.87772,0 2.81657,0 3.9119,0 7.82381,0 11.73571,0 0.31295,0 0.62591,0 0.93886,0"
       id="path4321"
       inkscape:connector-curvature="0"
       transform="matrix(-0.8,0,0,0.8,516.82882,-27.646011)"
       sodipodi:nodetypes="csssc" /></g></svg>