<?xml version="1.0" encoding="UTF-8" standalone="no"?>
<!-- Created with Inkscape (http://www.inkscape.org/) -->

<svg
   xmlns:dc="http://purl.org/dc/elements/1.1/"
   xmlns:cc="http://creativecommons.org/ns#"
   xmlns:rdf="http://www.w3.org/1999/02/22-rdf-syntax-ns#"
   xmlns:svg="http://www.w3.org/2000/svg"
   xmlns="http://www.w3.org/2000/svg"
   xmlns:sodipodi="http://sodipodi.sourceforge.net/DTD/sodipodi-0.dtd"
   xmlns:inkscape="http://www.inkscape.org/namespaces/inkscape"
   id="svg2"
   version="1.1"
   inkscape:version="0.48.5 r10040"
   width="898.75"
   height="600"
   xml:space="preserve"
   sodipodi:docname="gb.pdf"><metadata
     id="metadata8"><rdf:RDF><cc:Work
         rdf:about=""><dc:format>image/svg+xml</dc:format><dc:type
           rdf:resource="http://purl.org/dc/dcmitype/StillImage" /><dc:title></dc:title></cc:Work></rdf:RDF></metadata><defs
     id="defs6"><clipPath
       clipPathUnits="userSpaceOnUse"
       id="clipPath18"><path
         d="M 0,0 719,0 719,480 0,480 0,0 z"
         id="path20" /></clipPath><clipPath
       clipPathUnits="userSpaceOnUse"
       id="clipPath28"><path
         d="M 0,1 718,1 718,480 0,480 0,1 z"
         id="path30" /></clipPath><clipPath
       clipPathUnits="userSpaceOnUse"
       id="clipPath40"><path
         d="M 0,1 718,1 718,480 0,480 0,1 z"
         id="path42" /></clipPath><clipPath
       clipPathUnits="userSpaceOnUse"
       id="clipPath52"><path
         d="M 0,1 718,1 718,480 0,480 0,1 z"
         id="path54" /></clipPath><clipPath
       clipPathUnits="userSpaceOnUse"
       id="clipPath64"><path
         d="M 0,1 718,1 718,480 0,480 0,1 z"
         id="path66" /></clipPath><clipPath
       clipPathUnits="userSpaceOnUse"
       id="clipPath76"><path
         d="M 0,1 718,1 718,480 0,480 0,1 z"
         id="path78" /></clipPath><clipPath
       clipPathUnits="userSpaceOnUse"
       id="clipPath88"><path
         d="m 149,80 557,0 0,344 -557,0 0,-344 z"
         id="path90" /></clipPath><clipPath
       clipPathUnits="userSpaceOnUse"
       id="clipPath100"><path
         d="m 149,80 557,0 0,344 -557,0 0,-344 z"
         id="path102" /></clipPath><clipPath
       clipPathUnits="userSpaceOnUse"
       id="clipPath112"><path
         d="m 149,80 557,0 0,344 -557,0 0,-344 z"
         id="path114" /></clipPath><clipPath
       clipPathUnits="userSpaceOnUse"
       id="clipPath124"><path
         d="M 0,1 718,1 718,480 0,480 0,1 z"
         id="path126" /></clipPath><clipPath
       clipPathUnits="userSpaceOnUse"
       id="clipPath138"><path
         d="M 0,1 718,1 718,480 0,480 0,1 z"
         id="path140" /></clipPath><clipPath
       clipPathUnits="userSpaceOnUse"
       id="clipPath152"><path
         d="M 0,1 718,1 718,480 0,480 0,1 z"
         id="path154" /></clipPath><clipPath
       clipPathUnits="userSpaceOnUse"
       id="clipPath166"><path
         d="M 0,1 718,1 718,480 0,480 0,1 z"
         id="path168" /></clipPath><clipPath
       clipPathUnits="userSpaceOnUse"
       id="clipPath180"><path
         d="M 0,1 718,1 718,480 0,480 0,1 z"
         id="path182" /></clipPath><clipPath
       clipPathUnits="userSpaceOnUse"
       id="clipPath194"><path
         d="M 0,1 718,1 718,480 0,480 0,1 z"
         id="path196" /></clipPath><clipPath
       clipPathUnits="userSpaceOnUse"
       id="clipPath208"><path
         d="M 0,1 718,1 718,480 0,480 0,1 z"
         id="path210" /></clipPath><clipPath
       clipPathUnits="userSpaceOnUse"
       id="clipPath222"><path
         d="M 0,1 718,1 718,480 0,480 0,1 z"
         id="path224" /></clipPath><clipPath
       clipPathUnits="userSpaceOnUse"
       id="clipPath236"><path
         d="M 0,1 718,1 718,480 0,480 0,1 z"
         id="path238" /></clipPath><clipPath
       clipPathUnits="userSpaceOnUse"
       id="clipPath250"><path
         d="M 0,1 718,1 718,480 0,480 0,1 z"
         id="path252" /></clipPath><clipPath
       clipPathUnits="userSpaceOnUse"
       id="clipPath264"><path
         d="M 0,1 718,1 718,480 0,480 0,1 z"
         id="path266" /></clipPath><clipPath
       clipPathUnits="userSpaceOnUse"
       id="clipPath278"><path
         d="M 0,1 718,1 718,480 0,480 0,1 z"
         id="path280" /></clipPath><clipPath
       clipPathUnits="userSpaceOnUse"
       id="clipPath292"><path
         d="M 0,1 718,1 718,480 0,480 0,1 z"
         id="path294" /></clipPath><clipPath
       clipPathUnits="userSpaceOnUse"
       id="clipPath306"><path
         d="M 0,1 718,1 718,480 0,480 0,1 z"
         id="path308" /></clipPath><clipPath
       clipPathUnits="userSpaceOnUse"
       id="clipPath320"><path
         d="M 0,1 718,1 718,480 0,480 0,1 z"
         id="path322" /></clipPath><clipPath
       clipPathUnits="userSpaceOnUse"
       id="clipPath334"><path
         d="M 0,1 718,1 718,480 0,480 0,1 z"
         id="path336" /></clipPath><clipPath
       clipPathUnits="userSpaceOnUse"
       id="clipPath346"><path
         d="m 61.6012,434.211 428.0117,0 0,29.74536 -428.0117,0 0,-29.74536 z"
         id="path348" /></clipPath><clipPath
       clipPathUnits="userSpaceOnUse"
       id="clipPath360"><path
         d="M 0,1 718,1 718,480 0,480 0,1 z"
         id="path362" /></clipPath><clipPath
       clipPathUnits="userSpaceOnUse"
       id="clipPath372"><path
         d="m 0,434.211 718,0 0,29.74536 -718,0 0,-29.74536 z"
         id="path374" /></clipPath><clipPath
       clipPathUnits="userSpaceOnUse"
       id="clipPath386"><path
         d="M 0,1 718,1 718,480 0,480 0,1 z"
         id="path388" /></clipPath><clipPath
       clipPathUnits="userSpaceOnUse"
       id="clipPath398"><path
         d="m 339.5799,434.211 378.4201,0 0,29.74536 -378.4201,0 0,-29.74536 z"
         id="path400" /></clipPath></defs><sodipodi:namedview
     pagecolor="#ffffff"
     bordercolor="#666666"
     borderopacity="1"
     objecttolerance="10"
     gridtolerance="10"
     guidetolerance="10"
     inkscape:pageopacity="0"
     inkscape:pageshadow="2"
     inkscape:window-width="1082"
     inkscape:window-height="713"
     id="namedview4"
     showgrid="false"
     inkscape:zoom="0.36161335"
     inkscape:cx="449.375"
     inkscape:cy="300"
     inkscape:window-x="0"
     inkscape:window-y="0"
     inkscape:window-maximized="0"
     inkscape:current-layer="g10" /><g
     id="g10"
     inkscape:groupmode="layer"
     inkscape:label="gb"
     transform="matrix(1.25,0,0,-1.25,0,600)"><g
       id="g12" /><g
       id="g14"><g
         id="g16"
         clip-path="url(#clipPath18)"><path
           d="M 0,480 719,480 719,0 0,0 0,480 z"
           style="fill:#ffffff;fill-opacity:0;fill-rule:evenodd;stroke:none"
           id="path22" /></g></g><g
       id="g24"><g
         id="g26"
         clip-path="url(#clipPath28)"><g
           id="g32"
           transform="matrix(7.874016e-5,0,0,-7.874016e-5,149.8748,423.7187)"><path
             d="m 1590,3630559 7061186,0 M 1590,2906659 l 7061186,0 M 1590,2182759 l 7061186,0 M 1590,1458859 l 7061186,0 M 1590,722259.1 l 7061186,0 M 1590,-1640.947 l 7061186,0"
             style="fill:none;stroke:#989898;stroke-opacity:1;stroke-width:12700;stroke-linecap:butt;stroke-linejoin:round;stroke-miterlimit:10;stroke-dasharray:none"
             id="path34" /></g></g></g><g
       id="g36"><g
         id="g38"
         clip-path="url(#clipPath40)"><g
           id="g44"
           transform="matrix(7.874016e-5,0,0,-7.874016e-5,149.8748,423.7187)"><path
             d="M -0.01922607,4360927 0.949707,0.03771973"
             style="fill:none;stroke:#989898;stroke-opacity:1;stroke-width:12700;stroke-linecap:butt;stroke-linejoin:round;stroke-miterlimit:10;stroke-dasharray:none"
             id="path46" /></g></g></g><g
       id="g48"><g
         id="g50"
         clip-path="url(#clipPath52)"><g
           id="g56"
           transform="matrix(7.874016e-5,0,0,-7.874016e-5,144.1631,423.7187)"><path
             d="m -2072,4360927 74609.98,0 M -2072,3630559 l 74609.98,0 M -2072,2906659 l 74609.98,0 M -2072,2182759 l 74609.98,0 M -2072,1458859 l 74609.98,0 M -2072,722259.1 l 74609.98,0 M -2072,-1640.947 l 74609.98,0"
             style="fill:none;stroke:#989898;stroke-opacity:1;stroke-width:12700;stroke-linecap:butt;stroke-linejoin:round;stroke-miterlimit:10;stroke-dasharray:none"
             id="path58" /></g></g></g><g
       id="g60"><g
         id="g62"
         clip-path="url(#clipPath64)"><g
           id="g68"
           transform="matrix(7.874016e-5,0,0,-7.874016e-5,149.8748,80.33859)"><path
             d="M -0.01922607,-1.220703e-4 7062776,0.968811"
             style="fill:none;stroke:#989898;stroke-opacity:1;stroke-width:12700;stroke-linecap:butt;stroke-linejoin:round;stroke-miterlimit:10;stroke-dasharray:none"
             id="path70" /></g></g></g><g
       id="g72"><g
         id="g74"
         clip-path="url(#clipPath76)"><g
           id="g80"
           transform="matrix(7.874016e-5,0,0,-7.874016e-5,149.8748,80.33859)"><path
             d="m 1590,6231.984 0,63499.996 m 1181100,-63499.996 0,63499.996 m 1168400,-63499.996 0,63499.996 m 1181100,-63499.996 0,63499.996 m 1181100,-63499.996 0,63499.996 m 1168400,-63499.996 0,63499.996 m 1181086,-63499.996 0,63499.996"
             style="fill:none;stroke:#989898;stroke-opacity:1;stroke-width:12700;stroke-linecap:butt;stroke-linejoin:round;stroke-miterlimit:10;stroke-dasharray:none"
             id="path82" /></g></g></g><g
       id="g84"><g
         id="g86"
         clip-path="url(#clipPath88)"><g
           id="g92"
           transform="matrix(7.874016e-5,0,0,-7.874016e-5,196.2185,366.4886)"><path
             d="M -2775,3634106 1178325,2510038 m 0,0 1181100,-1016000 m 0,0 1168400,-800099.9 m 0,0 L 4708925,173238 m 0,0 1176721,-177799.947"
             style="fill:none;stroke:#5b92c7;stroke-opacity:1;stroke-width:47625;stroke-linecap:round;stroke-linejoin:round;stroke-miterlimit:10;stroke-dasharray:95254.77,95254.77;stroke-dashoffset:0"
             id="path94" /></g></g></g><g
       id="g96"><g
         id="g98"
         clip-path="url(#clipPath100)"><g
           id="g104"
           transform="matrix(7.874016e-5,0,0,-7.874016e-5,196.2185,366.4886)"><path
             d="m -2775,3634106 1181100,-895468 m 0,0 1181100,-1079500 m 0,0 1168400,-825499.9 m 0,0 L 4708925,262138 m 0,0 1176721,-266699.947"
             style="fill:none;stroke:#eb8104;stroke-opacity:1;stroke-width:47625;stroke-linecap:round;stroke-linejoin:round;stroke-miterlimit:10;stroke-dasharray:none"
             id="path106" /></g></g></g><g
       id="g108"><g
         id="g110"
         clip-path="url(#clipPath112)"><g
           id="g116"
           transform="matrix(7.874016e-5,0,0,-7.874016e-5,196.2185,366.4886)"><path
             d="M -2775,3634106 1178325,998738.1 m 0,0 L 2359425,-4561.947 m 0,0 1168400,838200.047 m 0,0 1181100,761999.9 m 0,0 1176721,101600"
             style="fill:none;stroke:#a8c367;stroke-opacity:1;stroke-width:47625;stroke-linecap:round;stroke-linejoin:round;stroke-miterlimit:10;stroke-dasharray:none"
             id="path118" /></g></g></g><g
       id="g120"><g
         id="g122"
         clip-path="url(#clipPath124)"><g
           id="g128"
           transform="translate(124.0577,91.13858)"><text
             transform="matrix(1,0,0,-1,0,-18)"
             id="text130"><tspan
               style="fill:#000000;fill-opacity:1;fill-rule:nonzero;stroke:none;font-family:Calibri;font-variant:normal;font-weight:normal;font-size:18;writing-mode:lr;-inkscape-font-specification:Calibri"
               x="0 9.1224"
               y="0"
               sodipodi:role="line"
               id="tspan132">0	</tspan></text>
</g></g></g><g
       id="g134"><g
         id="g136"
         clip-path="url(#clipPath138)"><g
           id="g142"
           transform="translate(110.3906,148.3686)"><text
             transform="matrix(1,0,0,-1,0,-18)"
             id="text144"><tspan
               style="fill:#000000;fill-opacity:1;fill-rule:nonzero;stroke:none;font-family:Calibri;font-variant:normal;font-weight:normal;font-size:18;writing-mode:lr;-inkscape-font-specification:Calibri"
               x="0 9.1224 13.6728 22.7952"
               y="0"
               sodipodi:role="line"
               id="tspan146">0.2	</tspan></text>
</g></g></g><g
       id="g148"><g
         id="g150"
         clip-path="url(#clipPath152)"><g
           id="g156"
           transform="translate(110.1806,205.5986)"><text
             transform="matrix(1,0,0,-1,0,-18)"
             id="text158"><tspan
               style="fill:#000000;fill-opacity:1;fill-rule:nonzero;stroke:none;font-family:Calibri;font-variant:normal;font-weight:normal;font-size:18;writing-mode:lr;-inkscape-font-specification:Calibri"
               x="0 9.1224 13.6728 22.7952"
               y="0"
               sodipodi:role="line"
               id="tspan160">0.4	</tspan></text>
</g></g></g><g
       id="g162"><g
         id="g164"
         clip-path="url(#clipPath166)"><g
           id="g170"
           transform="translate(110.3906,262.8287)"><text
             transform="matrix(1,0,0,-1,0,-18)"
             id="text172"><tspan
               style="fill:#000000;fill-opacity:1;fill-rule:nonzero;stroke:none;font-family:Calibri;font-variant:normal;font-weight:normal;font-size:18;writing-mode:lr;-inkscape-font-specification:Calibri"
               x="0 9.1224 13.6728 22.7952"
               y="0"
               sodipodi:role="line"
               id="tspan174">0.6	</tspan></text>
</g></g></g><g
       id="g176"><g
         id="g178"
         clip-path="url(#clipPath180)"><g
           id="g184"
           transform="translate(110.1806,320.0587)"><text
             transform="matrix(1,0,0,-1,0,-18)"
             id="text186"><tspan
               style="fill:#000000;fill-opacity:1;fill-rule:nonzero;stroke:none;font-family:Calibri;font-variant:normal;font-weight:normal;font-size:18;writing-mode:lr;-inkscape-font-specification:Calibri"
               x="0 9.1224 13.6728 22.7952"
               y="0"
               sodipodi:role="line"
               id="tspan188">0.8	</tspan></text>
</g></g></g><g
       id="g190"><g
         id="g192"
         clip-path="url(#clipPath194)"><g
           id="g198"
           transform="translate(124.0577,377.2887)"><text
             transform="matrix(1,0,0,-1,0,-18)"
             id="text200"><tspan
               style="fill:#000000;fill-opacity:1;fill-rule:nonzero;stroke:none;font-family:Calibri;font-variant:normal;font-weight:normal;font-size:18;writing-mode:lr;-inkscape-font-specification:Calibri"
               x="0 9.1224"
               y="0"
               sodipodi:role="line"
               id="tspan202">1	</tspan></text>
</g></g></g><g
       id="g204"><g
         id="g206"
         clip-path="url(#clipPath208)"><g
           id="g212"
           transform="translate(110.3906,434.5186)"><text
             transform="matrix(1,0,0,-1,0,-18)"
             id="text214"><tspan
               style="fill:#000000;fill-opacity:1;fill-rule:nonzero;stroke:none;font-family:Calibri;font-variant:normal;font-weight:normal;font-size:18;writing-mode:lr;-inkscape-font-specification:Calibri"
               x="0 9.1224 13.6728 22.7952"
               y="0"
               sodipodi:role="line"
               id="tspan216">1.2	</tspan></text>
</g></g></g><g
       id="g218"><g
         id="g220"
         clip-path="url(#clipPath222)"><g
           id="g226"
           transform="translate(149.6249,68.91522)"><text
             transform="matrix(1,0,0,-1,42.03214,-18)"
             id="text228"><tspan
               style="fill:#000000;fill-opacity:1;fill-rule:nonzero;stroke:none;font-family:Calibri;font-variant:normal;font-weight:normal;font-size:18;writing-mode:lr;-inkscape-font-specification:Calibri"
               x="0 9.1224"
               y="0"
               sodipodi:role="line"
               id="tspan230">0	</tspan></text>
</g></g></g><g
       id="g232"><g
         id="g234"
         clip-path="url(#clipPath236)"><g
           id="g240"
           transform="translate(242.3122,68.91522)"><text
             transform="matrix(1,0,0,-1,42.03214,-18)"
             id="text242"><tspan
               style="fill:#000000;fill-opacity:1;fill-rule:nonzero;stroke:none;font-family:Calibri;font-variant:normal;font-weight:normal;font-size:18;writing-mode:lr;-inkscape-font-specification:Calibri"
               x="0 9.1224"
               y="0"
               sodipodi:role="line"
               id="tspan244">1	</tspan></text>
</g></g></g><g
       id="g246"><g
         id="g248"
         clip-path="url(#clipPath250)"><g
           id="g254"
           transform="translate(334.9995,68.91522)"><text
             transform="matrix(1,0,0,-1,42.03214,-18)"
             id="text256"><tspan
               style="fill:#000000;fill-opacity:1;fill-rule:nonzero;stroke:none;font-family:Calibri;font-variant:normal;font-weight:normal;font-size:18;writing-mode:lr;-inkscape-font-specification:Calibri"
               x="0 9.1224"
               y="0"
               sodipodi:role="line"
               id="tspan258">2	</tspan></text>
</g></g></g><g
       id="g260"><g
         id="g262"
         clip-path="url(#clipPath264)"><g
           id="g268"
           transform="translate(427.6869,68.91522)"><text
             transform="matrix(1,0,0,-1,42.03214,-18)"
             id="text270"><tspan
               style="fill:#000000;fill-opacity:1;fill-rule:nonzero;stroke:none;font-family:Calibri;font-variant:normal;font-weight:normal;font-size:18;writing-mode:lr;-inkscape-font-specification:Calibri"
               x="0 9.1224"
               y="0"
               sodipodi:role="line"
               id="tspan272">3	</tspan></text>
</g></g></g><g
       id="g274"><g
         id="g276"
         clip-path="url(#clipPath278)"><g
           id="g282"
           transform="translate(520.3903,68.91522)"><text
             transform="matrix(1,0,0,-1,42.03214,-18)"
             id="text284"><tspan
               style="fill:#000000;fill-opacity:1;fill-rule:nonzero;stroke:none;font-family:Calibri;font-variant:normal;font-weight:normal;font-size:18;writing-mode:lr;-inkscape-font-specification:Calibri"
               x="0 9.1224"
               y="0"
               sodipodi:role="line"
               id="tspan286">4	</tspan></text>
</g></g></g><g
       id="g288"><g
         id="g290"
         clip-path="url(#clipPath292)"><g
           id="g296"
           transform="translate(613.0616,68.91522)"><text
             transform="matrix(1,0,0,-1,42.03214,-18)"
             id="text298"><tspan
               style="fill:#000000;fill-opacity:1;fill-rule:nonzero;stroke:none;font-family:Calibri;font-variant:normal;font-weight:normal;font-size:18;writing-mode:lr;-inkscape-font-specification:Calibri"
               x="0 9.1224"
               y="0"
               sodipodi:role="line"
               id="tspan300">5	</tspan></text>
</g></g></g><g
       id="g302"><g
         id="g304"
         clip-path="url(#clipPath306)"><g
           id="g310"
           transform="translate(-8.454496,266.4286)"><text
             transform="matrix(1,0,0,-1,24.45457,-24)"
             id="text312"><tspan
               style="fill:#000000;fill-opacity:1;fill-rule:nonzero;stroke:none;font-family:Arial;font-variant:normal;font-weight:normal;font-size:24;writing-mode:lr;-inkscape-font-specification:ArialMT"
               x="0 13.3488 18.6816 30.6816 37.3488 50.6976 64.0464 76.0464 89.3952"
               y="0"
               sodipodi:role="line"
               id="tspan314">distance </tspan></text>
</g></g></g><g
       id="g316"><g
         id="g318"
         clip-path="url(#clipPath320)"><g
           id="g324"
           transform="translate(143.0873,43.81528)"><text
             transform="matrix(1,0,0,-1,244.8241,-24)"
             id="text326"><tspan
               style="fill:#000000;fill-opacity:1;fill-rule:nonzero;stroke:none;font-family:Arial;font-variant:normal;font-weight:normal;font-size:24;writing-mode:lr;-inkscape-font-specification:ArialMT"
               x="0 7.992 21.3408 28.008 41.3568 48.024 53.3568 66.7056 80.0544"
               y="0"
               sodipodi:role="line"
               id="tspan328">rotation </tspan></text>
</g></g></g><g
       id="g330"><g
         id="g332"
         clip-path="url(#clipPath334)"><g
           id="g338"
           transform="matrix(7.874016e-5,0,0,-7.874016e-5,217.1847,449.9962)"><path
             d="M -0.01916504,-0.1657715 320039.9,0.9969482"
             style="fill:none;stroke:#5b92c7;stroke-opacity:1;stroke-width:47625;stroke-linecap:round;stroke-linejoin:round;stroke-miterlimit:10;stroke-dasharray:95254.77,95254.77;stroke-dashoffset:0"
             id="path340" /></g></g></g><g
       id="g342"><g
         id="g344"
         clip-path="url(#clipPath346)"><g
           id="g350"
           transform="translate(245.0348,462.2836)"><text
             transform="matrix(1,0,0,-1,0,-22)"
             id="text352"><tspan
               style="fill:#000000;fill-opacity:1;fill-rule:nonzero;stroke:none;font-family:Arial;font-variant:normal;font-weight:normal;font-size:22;writing-mode:lr;-inkscape-font-specification:ArialMT"
               x="0 6.1116 18.348 30.5844 41.5844 53.8208 61.1468"
               y="0"
               sodipodi:role="line"
               id="tspan354">tensor </tspan></text>
</g></g></g><g
       id="g356"><g
         id="g358"
         clip-path="url(#clipPath360)"><g
           id="g364"
           transform="matrix(7.874016e-5,0,0,-7.874016e-5,328.6794,449.9962)"><path
             d="M 0.1806641,-0.1657715 320040.3,0.9969482"
             style="fill:none;stroke:#eb8104;stroke-opacity:1;stroke-width:47625;stroke-linecap:round;stroke-linejoin:round;stroke-miterlimit:10;stroke-dasharray:none"
             id="path366" /></g></g></g><g
       id="g368"><g
         id="g370"
         clip-path="url(#clipPath372)"><g
           id="g376"
           transform="translate(356.5295,462.2836)"><text
             transform="matrix(1,0,0,-1,0,-22)"
             id="text378"><tspan
               style="fill:#000000;fill-opacity:1;fill-rule:nonzero;stroke:none;font-family:Arial;font-variant:normal;font-weight:normal;font-size:22;writing-mode:lr;-inkscape-font-specification:ArialMT"
               x="0 11 23.2364 35.4728 47.7092 55.0352 67.2716 79.508 91.7444 103.9808 111.3068 116.1952 127.1952"
               y="0"
               sodipodi:role="line"
               id="tspan380">superquadric </tspan></text>
</g></g></g><g
       id="g382"><g
         id="g384"
         clip-path="url(#clipPath386)"><g
           id="g390"
           transform="matrix(7.874016e-5,0,0,-7.874016e-5,506.2172,449.9962)"><path
             d="M -0.02880859,-0.1657715 320040.1,0.9969482"
             style="fill:none;stroke:#a8c367;stroke-opacity:1;stroke-width:47625;stroke-linecap:round;stroke-linejoin:round;stroke-miterlimit:10;stroke-dasharray:none"
             id="path392" /></g></g></g><g
       id="g394"><g
         id="g396"
         clip-path="url(#clipPath398)"><g
           id="g402"
           transform="translate(534.0672,462.2836)"><text
             transform="matrix(1,0,0,-1,0,-22)"
             id="text404"><tspan
               style="fill:#000000;fill-opacity:1;fill-rule:nonzero;stroke:none;font-family:Arial;font-variant:normal;font-weight:normal;font-size:22;writing-mode:lr;-inkscape-font-specification:ArialMT"
               x="0 11 23.2364 35.4728 47.7092 52.5976 64.834"
               y="0"
               sodipodi:role="line"
               id="tspan406">cuboid </tspan></text>
</g></g></g></g></svg>