<?xml version="1.0" encoding="UTF-8" standalone="no"?>
<!-- Created with Inkscape (http://www.inkscape.org/) -->

<svg
   xmlns:xhtml="http://www.w3.org/1999/xhtml"
   xmlns:dc="http://purl.org/dc/elements/1.1/"
   xmlns:cc="http://creativecommons.org/ns#"
   xmlns:rdf="http://www.w3.org/1999/02/22-rdf-syntax-ns#"
   xmlns:svg="http://www.w3.org/2000/svg"
   xmlns="http://www.w3.org/2000/svg"
   version="1.1"
   width="719.25409"
   height="326.3649"
   id="svg2">
  <metadata
     id="metadata176">
    <rdf:RDF>
      <cc:Work
         rdf:about="">
        <dc:format>image/svg+xml</dc:format>
        <dc:type
           rdf:resource="http://purl.org/dc/dcmitype/StillImage" />
        <dc:title></dc:title>
      </cc:Work>
    </rdf:RDF>
  </metadata>
  <defs
     id="defs174" />
  <xhtml:defs>
    <xhtml:style
       type="text/css" />
  </xhtml:defs>
  <g
     transform="matrix(18,0,0,18,14.092119,53.364884)"
     id="g4"
     style="fill:none;stroke:#000000;stroke-width:0.1388889;stroke-linecap:round;stroke-miterlimit:0;stroke-opacity:1;stroke-dasharray:none">
    <polygon
       points="0.53033009,0 -0.53033009,0.61237244 -0.53033009,-0.61237244 "
       transform="matrix(0,-1,1,0,0,0)"
       id="polygon6"
       style="fill:none;stroke:#000000;stroke-width:0.1388889;stroke-linecap:round;stroke-linejoin:round;stroke-miterlimit:0;stroke-opacity:1;stroke-dasharray:none" />
  </g>
  <g
     transform="matrix(18,0,0,18,14.092119,95.364884)"
     id="g8"
     style="fill:none;stroke:#000000;stroke-width:0.1388889;stroke-linecap:round;stroke-miterlimit:0;stroke-opacity:1;stroke-dasharray:none">
    <polygon
       points="-1.2989341e-16,-0.70710678 0.70710678,0 4.3297803e-17,0.70710678 -0.70710678,8.6595606e-17 "
       transform="matrix(0.70710678,0.70710678,-0.70710678,0.70710678,0,0)"
       id="polygon10"
       style="fill:none;stroke:#000000;stroke-width:0.1388889;stroke-linecap:round;stroke-linejoin:round;stroke-miterlimit:0;stroke-opacity:1;stroke-dasharray:none" />
  </g>
  <g
     transform="matrix(18,0,0,18,14.092119,137.22983)"
     id="g12"
     style="fill:none;stroke:#000000;stroke-width:0.1388889;stroke-linecap:round;stroke-miterlimit:0;stroke-opacity:1;stroke-dasharray:none">
    <polygon
       points="0.70710678,0 0.21850801,0.67249851 -0.5720614,0.41562694 -0.5720614,-0.41562694 0.21850801,-0.67249851 "
       transform="matrix(0.95105652,-0.30901699,0.30901699,0.95105652,0,0)"
       id="polygon14"
       style="fill:none;stroke:#000000;stroke-width:0.1388889;stroke-linecap:round;stroke-linejoin:round;stroke-miterlimit:0;stroke-opacity:1;stroke-dasharray:none" />
  </g>
  <g
     transform="matrix(18,0,0,18,14.092119,179.36488)"
     id="g16"
     style="fill:none;stroke:#000000;stroke-width:0.1388889;stroke-linecap:round;stroke-miterlimit:0;stroke-opacity:1;stroke-dasharray:none">
    <polygon
       points="-0.70710678,8.6595606e-17 -0.35355339,-0.61237244 0.35355339,-0.61237244 0.70710678,0 0.35355339,0.61237244 -0.35355339,0.61237244 "
       id="polygon18"
       style="fill:none;stroke:#000000;stroke-width:0.1388889;stroke-linecap:round;stroke-linejoin:round;stroke-miterlimit:0;stroke-opacity:1;stroke-dasharray:none" />
  </g>
  <g
     transform="matrix(18,0,0,18,14.092158,221.29489)"
     id="g20"
     style="fill:none;stroke:#000000;stroke-width:0.1388889;stroke-linecap:round;stroke-miterlimit:0;stroke-opacity:1;stroke-dasharray:none">
    <polygon
       points="0.44087387,0.55283834 -0.15734606,0.68937814 -0.6370812,0.30680213 -0.6370812,-0.30680213 -0.15734606,-0.68937814 0.44087387,-0.55283834 0.70710678,0 "
       transform="matrix(0.97495565,0.22239939,-0.22239939,0.97495565,0,0)"
       id="polygon22"
       style="fill:none;stroke:#000000;stroke-width:0.1388889;stroke-linecap:round;stroke-linejoin:round;stroke-miterlimit:0;stroke-opacity:1;stroke-dasharray:none" />
  </g>
  <g
     transform="matrix(18,0,0,18,14.092119,263.36488)"
     id="g24"
     style="fill:none;stroke:#000000;stroke-width:0.1388889;stroke-linecap:round;stroke-miterlimit:0;stroke-opacity:1;stroke-dasharray:none">
    <polygon
       points="0.5,-0.5 0.70710678,0 0.5,0.5 4.3297803e-17,0.70710678 -0.5,0.5 -0.70710678,8.6595606e-17 -0.5,-0.5 -1.2989341e-16,-0.70710678 "
       transform="matrix(0.92387953,0.38268343,-0.38268343,0.92387953,0,0)"
       id="polygon26"
       style="fill:none;stroke:#000000;stroke-width:0.1388889;stroke-linecap:round;stroke-linejoin:round;stroke-miterlimit:0;stroke-opacity:1;stroke-dasharray:none" />
  </g>
  <g
     transform="matrix(18,0,0,18,14.092119,305.36488)"
     id="g28"
     style="fill:none;stroke:#000000;stroke-width:0.1388889;stroke-linecap:round;stroke-miterlimit:0;stroke-opacity:1;stroke-dasharray:none">
    <circle
       cx="0"
       cy="0"
       r="0.70710677"
       transform="scale(0.9,0.9)"
       id="circle30"
       style="fill:none;stroke:#000000;stroke-width:0.15432099;stroke-linecap:round;stroke-linejoin:round;stroke-miterlimit:0;stroke-opacity:1;stroke-dasharray:none" />
  </g>
  <g
     transform="matrix(18,0,0,18,55.092119,14.364884)"
     id="g32"
     style="fill:none;stroke:#000000;stroke-width:0.1388889;stroke-linecap:round;stroke-miterlimit:0;stroke-opacity:1;stroke-dasharray:none">
    <polygon
       points="-0.53033009,0.61237244 -0.53033009,-0.61237244 0.53033009,0 "
       transform="matrix(0,-1,1,0,0,0)"
       id="polygon34"
       style="fill:none;stroke:#000000;stroke-width:0.1388889;stroke-linecap:round;stroke-linejoin:round;stroke-miterlimit:0;stroke-opacity:1;stroke-dasharray:none" />
  </g>
  <g
     transform="matrix(18,0,0,18,97.092119,14.364884)"
     id="g36"
     style="fill:none;stroke:#000000;stroke-width:0.1388889;stroke-linecap:round;stroke-miterlimit:0;stroke-opacity:1;stroke-dasharray:none">
    <polygon
       points="0.70710678,0 4.3297803e-17,0.70710678 -0.70710678,8.6595606e-17 -1.2989341e-16,-0.70710678 "
       transform="matrix(0.70710678,0.70710678,-0.70710678,0.70710678,0,0)"
       id="polygon38"
       style="fill:none;stroke:#000000;stroke-width:0.1388889;stroke-linecap:round;stroke-linejoin:round;stroke-miterlimit:0;stroke-opacity:1;stroke-dasharray:none" />
  </g>
  <g
     transform="matrix(18,0,0,18,139.09212,14.229839)"
     id="g40"
     style="fill:none;stroke:#000000;stroke-width:0.1388889;stroke-linecap:round;stroke-miterlimit:0;stroke-opacity:1;stroke-dasharray:none">
    <polygon
       points="0.21850801,0.67249851 -0.5720614,0.41562694 -0.5720614,-0.41562694 0.21850801,-0.67249851 0.70710678,0 "
       transform="matrix(0.95105652,-0.30901699,0.30901699,0.95105652,0,0)"
       id="polygon42"
       style="fill:none;stroke:#000000;stroke-width:0.1388889;stroke-linecap:round;stroke-linejoin:round;stroke-miterlimit:0;stroke-opacity:1;stroke-dasharray:none" />
  </g>
  <g
     transform="matrix(18,0,0,18,181.09212,14.364884)"
     id="g44"
     style="fill:none;stroke:#000000;stroke-width:0.1388889;stroke-linecap:round;stroke-miterlimit:0;stroke-opacity:1;stroke-dasharray:none">
    <polygon
       points="-0.35355339,-0.61237244 0.35355339,-0.61237244 0.70710678,0 0.35355339,0.61237244 -0.35355339,0.61237244 -0.70710678,8.6595606e-17 "
       id="polygon46"
       style="fill:none;stroke:#000000;stroke-width:0.1388889;stroke-linecap:round;stroke-linejoin:round;stroke-miterlimit:0;stroke-opacity:1;stroke-dasharray:none" />
  </g>
  <g
     transform="matrix(18,0,0,18,223.09216,14.294897)"
     id="g48"
     style="fill:none;stroke:#000000;stroke-width:0.1388889;stroke-linecap:round;stroke-miterlimit:0;stroke-opacity:1;stroke-dasharray:none">
    <polygon
       points="-0.15734606,0.68937814 -0.6370812,0.30680213 -0.6370812,-0.30680213 -0.15734606,-0.68937814 0.44087387,-0.55283834 0.70710678,0 0.44087387,0.55283834 "
       transform="matrix(0.97495565,0.22239939,-0.22239939,0.97495565,0,0)"
       id="polygon50"
       style="fill:none;stroke:#000000;stroke-width:0.1388889;stroke-linecap:round;stroke-linejoin:round;stroke-miterlimit:0;stroke-opacity:1;stroke-dasharray:none" />
  </g>
  <g
     transform="matrix(18,0,0,18,265.09212,14.364884)"
     id="g52"
     style="fill:none;stroke:#000000;stroke-width:0.1388889;stroke-linecap:round;stroke-miterlimit:0;stroke-opacity:1;stroke-dasharray:none">
    <polygon
       points="0.70710678,0 0.5,0.5 4.3297803e-17,0.70710678 -0.5,0.5 -0.70710678,8.6595606e-17 -0.5,-0.5 -1.2989341e-16,-0.70710678 0.5,-0.5 "
       transform="matrix(0.92387953,0.38268343,-0.38268343,0.92387953,0,0)"
       id="polygon54"
       style="fill:none;stroke:#000000;stroke-width:0.1388889;stroke-linecap:round;stroke-linejoin:round;stroke-miterlimit:0;stroke-opacity:1;stroke-dasharray:none" />
  </g>
  <g
     transform="matrix(18,0,0,18,307.09212,14.364884)"
     id="g56"
     style="fill:none;stroke:#000000;stroke-width:0.1388889;stroke-linecap:round;stroke-miterlimit:0;stroke-opacity:1;stroke-dasharray:none">
    <circle
       cx="0"
       cy="0"
       r="0.70710677"
       transform="scale(0.9,0.9)"
       id="circle58"
       style="fill:none;stroke:#000000;stroke-width:0.15432099;stroke-linecap:round;stroke-linejoin:round;stroke-miterlimit:0;stroke-opacity:1;stroke-dasharray:none" />
  </g>
  <g
     transform="translate(-18.907881,32.364884)"
     id="g60">
    <rect
       width="42"
       height="42"
       x="53"
       y="0"
       id="rect62"
       style="fill:#000000;stroke:none" />
    <rect
       width="42"
       height="42"
       x="95"
       y="0"
       id="rect64"
       style="fill:#b5b5b5;stroke:none" />
    <rect
       width="42"
       height="42"
       x="137"
       y="0"
       id="rect66"
       style="fill:#a5a5a5;stroke:none" />
    <rect
       width="42"
       height="42"
       x="179"
       y="0"
       id="rect68"
       style="fill:#b7b7b7;stroke:none" />
    <rect
       width="42"
       height="42"
       x="221"
       y="0"
       id="rect70"
       style="fill:#c7c7c7;stroke:none" />
    <rect
       width="42"
       height="42"
       x="263"
       y="0"
       id="rect72"
       style="fill:#cccccc;stroke:none" />
    <rect
       width="42"
       height="42"
       x="305"
       y="0"
       id="rect74"
       style="fill:#eaeaea;stroke:none" />
  </g>
  <g
     transform="translate(-18.907881,74.364884)"
     id="g76">
    <rect
       width="42"
       height="42"
       x="53"
       y="0"
       id="rect78"
       style="fill:#b5b5b5;stroke:none" />
    <rect
       width="42"
       height="42"
       x="95"
       y="0"
       id="rect80"
       style="fill:#000000;stroke:none" />
    <rect
       width="42"
       height="42"
       x="137"
       y="0"
       id="rect82"
       style="fill:#a7a7a7;stroke:none" />
    <rect
       width="42"
       height="42"
       x="179"
       y="0"
       id="rect84"
       style="fill:#a4a4a4;stroke:none" />
    <rect
       width="42"
       height="42"
       x="221"
       y="0"
       id="rect86"
       style="fill:#a7a7a7;stroke:none" />
    <rect
       width="42"
       height="42"
       x="263"
       y="0"
       id="rect88"
       style="fill:#bfbfbf;stroke:none" />
    <rect
       width="42"
       height="42"
       x="305"
       y="0"
       id="rect90"
       style="fill:#dedede;stroke:none" />
  </g>
  <g
     transform="translate(-18.907881,116.36488)"
     id="g92">
    <rect
       width="42"
       height="42"
       x="53"
       y="0"
       id="rect94"
       style="fill:#a5a5a5;stroke:none" />
    <rect
       width="42"
       height="42"
       x="95"
       y="0"
       id="rect96"
       style="fill:#a7a7a7;stroke:none" />
    <rect
       width="42"
       height="42"
       x="137"
       y="0"
       id="rect98"
       style="fill:#000000;stroke:none" />
    <rect
       width="42"
       height="42"
       x="179"
       y="0"
       id="rect100"
       style="fill:#717171;stroke:none" />
    <rect
       width="42"
       height="42"
       x="221"
       y="0"
       id="rect102"
       style="fill:#656565;stroke:none" />
    <rect
       width="42"
       height="42"
       x="263"
       y="0"
       id="rect104"
       style="fill:#808080;stroke:none" />
    <rect
       width="42"
       height="42"
       x="305"
       y="0"
       id="rect106"
       style="fill:#d1d1d1;stroke:none" />
  </g>
  <g
     transform="translate(-18.907881,158.36488)"
     id="g108">
    <rect
       width="42"
       height="42"
       x="53"
       y="0"
       id="rect110"
       style="fill:#b7b7b7;stroke:none" />
    <rect
       width="42"
       height="42"
       x="95"
       y="0"
       id="rect112"
       style="fill:#a4a4a4;stroke:none" />
    <rect
       width="42"
       height="42"
       x="137"
       y="0"
       id="rect114"
       style="fill:#717171;stroke:none" />
    <rect
       width="42"
       height="42"
       x="179"
       y="0"
       id="rect116"
       style="fill:#000000;stroke:none" />
    <rect
       width="42"
       height="42"
       x="221"
       y="0"
       id="rect118"
       style="fill:#474747;stroke:none" />
    <rect
       width="42"
       height="42"
       x="263"
       y="0"
       id="rect120"
       style="fill:#5d5d5d;stroke:none" />
    <rect
       width="42"
       height="42"
       x="305"
       y="0"
       id="rect122"
       style="fill:#b9b9b9;stroke:none" />
  </g>
  <g
     transform="translate(-18.907881,200.36488)"
     id="g124">
    <rect
       width="42"
       height="42"
       x="53"
       y="0"
       id="rect126"
       style="fill:#c7c7c7;stroke:none" />
    <rect
       width="42"
       height="42"
       x="95"
       y="0"
       id="rect128"
       style="fill:#a7a7a7;stroke:none" />
    <rect
       width="42"
       height="42"
       x="137"
       y="0"
       id="rect130"
       style="fill:#656565;stroke:none" />
    <rect
       width="42"
       height="42"
       x="179"
       y="0"
       id="rect132"
       style="fill:#474747;stroke:none" />
    <rect
       width="42"
       height="42"
       x="221"
       y="0"
       id="rect134"
       style="fill:#000000;stroke:none" />
    <rect
       width="42"
       height="42"
       x="263"
       y="0"
       id="rect136"
       style="fill:#2a2a2a;stroke:none" />
    <rect
       width="42"
       height="42"
       x="305"
       y="0"
       id="rect138"
       style="fill:#a2a2a2;stroke:none" />
  </g>
  <g
     transform="translate(-18.907881,242.36488)"
     id="g140">
    <rect
       width="42"
       height="42"
       x="53"
       y="0"
       id="rect142"
       style="fill:#cccccc;stroke:none" />
    <rect
       width="42"
       height="42"
       x="95"
       y="0"
       id="rect144"
       style="fill:#bfbfbf;stroke:none" />
    <rect
       width="42"
       height="42"
       x="137"
       y="0"
       id="rect146"
       style="fill:#808080;stroke:none" />
    <rect
       width="42"
       height="42"
       x="179"
       y="0"
       id="rect148"
       style="fill:#5d5d5d;stroke:none" />
    <rect
       width="42"
       height="42"
       x="221"
       y="0"
       id="rect150"
       style="fill:#2a2a2a;stroke:none" />
    <rect
       width="42"
       height="42"
       x="263"
       y="0"
       id="rect152"
       style="fill:#000000;stroke:none" />
    <rect
       width="42"
       height="42"
       x="305"
       y="0"
       id="rect154"
       style="fill:#858585;stroke:none" />
  </g>
  <g
     transform="translate(-18.907881,284.36488)"
     id="g156">
    <rect
       width="42"
       height="42"
       x="53"
       y="0"
       id="rect158"
       style="fill:#eaeaea;stroke:none" />
    <rect
       width="42"
       height="42"
       x="95"
       y="0"
       id="rect160"
       style="fill:#dedede;stroke:none" />
    <rect
       width="42"
       height="42"
       x="137"
       y="0"
       id="rect162"
       style="fill:#d1d1d1;stroke:none" />
    <rect
       width="42"
       height="42"
       x="179"
       y="0"
       id="rect164"
       style="fill:#b9b9b9;stroke:none" />
    <rect
       width="42"
       height="42"
       x="221"
       y="0"
       id="rect166"
       style="fill:#a2a2a2;stroke:none" />
    <rect
       width="42"
       height="42"
       x="263"
       y="0"
       id="rect168"
       style="fill:#858585;stroke:none" />
    <rect
       width="42"
       height="42"
       x="305"
       y="0"
       id="rect170"
       style="fill:#000000;stroke:none" />
  </g>
  <rect
     width="359.81308"
     height="297.66354"
     x="378.34891"
     y="51.246105"
     transform="translate(-18.907881,-22.544765)"
     id="rect4541"
     style="fill:#ffe6d5;stroke:none" />
  <g
     transform="translate(351.34104,31.44079)"
     id="g4465"
     style="fill:none;stroke:#000000;stroke-width:3;stroke-miterlimit:4;stroke-opacity:1;stroke-dasharray:none">
    <g
       transform="matrix(18,0,0,18,325,98.646312)"
       id="g3155"
       style="fill:none;stroke:#000000;stroke-width:0.16666667;stroke-miterlimit:4;stroke-opacity:1;stroke-dasharray:none">
      <polygon
         points="-0.53033009,-0.61237244 0.53033009,0 -0.53033009,0.61237244 "
         transform="matrix(0,-1,1,0,0,0)"
         id="polygon3157"
         style="fill:none;stroke:#000000;stroke-width:0.16666667;stroke-linecap:round;stroke-linejoin:round;stroke-miterlimit:4;stroke-opacity:1;stroke-dasharray:none" />
    </g>
    <g
       transform="matrix(18,0,0,18,278.12154,149.97671)"
       id="g3159"
       style="fill:none;stroke:#000000;stroke-width:0.16666667;stroke-miterlimit:4;stroke-opacity:1;stroke-dasharray:none">
      <polygon
         points="-1.2989341e-16,-0.70710678 0.70710678,0 4.3297803e-17,0.70710678 -0.70710678,8.6595606e-17 "
         transform="matrix(0.70710678,0.70710678,-0.70710678,0.70710678,0,0)"
         id="polygon3161"
         style="fill:none;stroke:#000000;stroke-width:0.16666667;stroke-linecap:round;stroke-linejoin:round;stroke-miterlimit:4;stroke-opacity:1;stroke-dasharray:none" />
    </g>
    <g
       transform="matrix(18,0,0,18,218.09891,243)"
       id="g3163"
       style="fill:none;stroke:#000000;stroke-width:0.16666667;stroke-miterlimit:4;stroke-opacity:1;stroke-dasharray:none">
      <polygon
         points="-0.5720614,-0.41562694 0.21850801,-0.67249851 0.70710678,0 0.21850801,0.67249851 -0.5720614,0.41562694 "
         transform="matrix(0.95105652,-0.30901699,0.30901699,0.95105652,0,0)"
         id="polygon3165"
         style="fill:none;stroke:#000000;stroke-width:0.16666667;stroke-linecap:round;stroke-linejoin:round;stroke-miterlimit:4;stroke-opacity:1;stroke-dasharray:none" />
    </g>
    <g
       transform="matrix(18,0,0,18,168.82274,236.0183)"
       id="g3167"
       style="fill:none;stroke:#000000;stroke-width:0.16666667;stroke-miterlimit:4;stroke-opacity:1;stroke-dasharray:none">
      <polygon
         points="0.35355339,-0.61237244 0.70710678,0 0.35355339,0.61237244 -0.35355339,0.61237244 -0.70710678,8.6595606e-17 -0.35355339,-0.61237244 "
         id="polygon3169"
         style="fill:none;stroke:#000000;stroke-width:0.16666667;stroke-linecap:round;stroke-linejoin:round;stroke-miterlimit:4;stroke-opacity:1;stroke-dasharray:none" />
    </g>
    <g
       transform="matrix(18,0,0,18,131.56496,231.86718)"
       id="g3171"
       style="fill:none;stroke:#000000;stroke-width:0.16666667;stroke-miterlimit:4;stroke-opacity:1;stroke-dasharray:none">
      <polygon
         points="-0.15734606,0.68937814 -0.6370812,0.30680213 -0.6370812,-0.30680213 -0.15734606,-0.68937814 0.44087387,-0.55283834 0.70710678,0 0.44087387,0.55283834 "
         transform="matrix(0.97495565,0.22239939,-0.22239939,0.97495565,0,0)"
         id="polygon3173"
         style="fill:none;stroke:#000000;stroke-width:0.16666667;stroke-linecap:round;stroke-linejoin:round;stroke-miterlimit:4;stroke-opacity:1;stroke-dasharray:none" />
    </g>
    <g
       transform="matrix(18,0,0,18,97.429899,198.0154)"
       id="g3175"
       style="fill:none;stroke:#000000;stroke-width:0.16666667;stroke-miterlimit:4;stroke-opacity:1;stroke-dasharray:none">
      <polygon
         points="0.5,-0.5 0.70710678,0 0.5,0.5 4.3297803e-17,0.70710678 -0.5,0.5 -0.70710678,8.6595606e-17 -0.5,-0.5 -1.2989341e-16,-0.70710678 "
         transform="matrix(0.92387953,0.38268343,-0.38268343,0.92387953,0,0)"
         id="polygon3177"
         style="fill:none;stroke:#000000;stroke-width:0.16666667;stroke-linecap:round;stroke-linejoin:round;stroke-miterlimit:4;stroke-opacity:1;stroke-dasharray:none" />
    </g>
    <g
       transform="matrix(18,0,0,18,50,50)"
       id="g3179"
       style="fill:none;stroke:#000000;stroke-width:0.16666667;stroke-miterlimit:4;stroke-opacity:1;stroke-dasharray:none">
      <circle
         cx="0"
         cy="0"
         r="0.70710677"
         transform="scale(0.9,0.9)"
         id="circle3181"
         style="fill:none;stroke:#000000;stroke-width:0.18518519;stroke-linecap:round;stroke-linejoin:round;stroke-miterlimit:4;stroke-opacity:1;stroke-dasharray:none" />
    </g>
  </g>
</svg>
