<?xml version="1.0" standalone="no"?><!DOCTYPE svg PUBLIC "-//W3C//DTD SVG 1.1//EN" "http://www.w3.org/Graphics/SVG/1.1/DTD/svg11.dtd"><svg width="350" height="350" version="1.1" xmlns="http://www.w3.org/2000/svg" xmlns:xlink="http://www.w3.org/1999/xlink"><defs xmlns="http://www.w3.org/1999/xhtml"><style type="text/css"><![CDATA[]]></style></defs><g class="rowlabel" transform="translate(29,74) scale(20)"><polygon transform="rotate(-90)" points="0.5303300858899106,0,-0.5303300858899105,0.6123724356957945,-0.5303300858899109,-0.6123724356957942" vector-effect="non-scaling-stroke" style="fill: rgb(255, 255, 255); stroke-width: 2.3px; stroke-linecap: round; stroke-linejoin: round; stroke: rgb(0, 0, 0);"/></g><g class="rowlabel" transform="translate(29,116) scale(20)"><polygon transform="rotate(45)" points="0.7071067811865475,0,4.329780281177466e-17,0.7071067811865475,-0.7071067811865475,8.659560562354932e-17,-1.2989340843532398e-16,-0.7071067811865475" vector-effect="non-scaling-stroke" style="fill: rgb(255, 255, 255); stroke-width: 2.3px; stroke-linecap: round; stroke-linejoin: round; stroke: rgb(0, 0, 0);"/></g><g class="rowlabel" transform="translate(29,158) scale(20)"><polygon transform="rotate(-18)" points="0.7071067811865475,0,0.21850801222441055,0.6724985119639573,-0.5720614028176843,0.41562693777745346,-0.5720614028176843,-0.4156269377774533,0.21850801222441038,-0.6724985119639573" vector-effect="non-scaling-stroke" style="fill: rgb(255, 255, 255); stroke-width: 2.3px; stroke-linecap: round; stroke-linejoin: round; stroke: rgb(0, 0, 0);"/></g><g class="rowlabel" transform="translate(29,200) scale(20)"><polygon points="0.7071067811865475,0,0.3535533905932738,0.6123724356957945,-0.35355339059327356,0.6123724356957945,-0.7071067811865475,8.659560562354932e-17,-0.35355339059327406,-0.6123724356957942,0.3535533905932733,-0.6123724356957948" vector-effect="non-scaling-stroke" style="fill: rgb(255, 255, 255); stroke-width: 2.3px; stroke-linecap: round; stroke-linejoin: round; stroke: rgb(0, 0, 0);"/></g><g class="rowlabel" transform="translate(29,242) scale(20)"><polygon transform="rotate(12.85)" points="0.7071067811865475,0,0.4408738668949674,0.5528383429982752,-0.15734606135647375,0.6893781378718103,-0.6370811961317672,0.3068021341766003,-0.6370811961317673,-0.3068021341766001,-0.15734606135647392,-0.6893781378718103,0.4408738668949672,-0.5528383429982753" vector-effect="non-scaling-stroke" style="fill: rgb(255, 255, 255); stroke-width: 2.3px; stroke-linecap: round; stroke-linejoin: round; stroke: rgb(0, 0, 0);"/></g><g class="rowlabel" transform="translate(29,284) scale(20)"><polygon transform="rotate(22.5)" points="0.7071067811865475,0,0.5,0.4999999999999999,4.329780281177466e-17,0.7071067811865475,-0.4999999999999999,0.5,-0.7071067811865475,8.659560562354932e-17,-0.5000000000000001,-0.4999999999999999,-1.2989340843532398e-16,-0.7071067811865475,0.49999999999999983,-0.5000000000000001" vector-effect="non-scaling-stroke" style="fill: rgb(255, 255, 255); stroke-width: 2.3px; stroke-linecap: round; stroke-linejoin: round; stroke: rgb(0, 0, 0);"/></g><g class="rowlabel" transform="translate(29,326) scale(20)"><circle transform="scale(0.9)" r="0.7071067811865475" vector-effect="non-scaling-stroke" style="fill: rgb(255, 255, 255); stroke-width: 2.3px; stroke-linecap: round; stroke-linejoin: round; stroke: rgb(0, 0, 0);"/></g><g class="collabel" transform="translate(74,29) scale(20)"><polygon transform="rotate(-90)" points="0.5303300858899106,0,-0.5303300858899105,0.6123724356957945,-0.5303300858899109,-0.6123724356957942" vector-effect="non-scaling-stroke" style="fill: rgb(255, 255, 255); stroke-width: 2.3px; stroke-linecap: round; stroke-linejoin: round; stroke: rgb(0, 0, 0);"/></g><g class="collabel" transform="translate(116,29) scale(20)"><polygon transform="rotate(45)" points="0.7071067811865475,0,4.329780281177466e-17,0.7071067811865475,-0.7071067811865475,8.659560562354932e-17,-1.2989340843532398e-16,-0.7071067811865475" vector-effect="non-scaling-stroke" style="fill: rgb(255, 255, 255); stroke-width: 2.3px; stroke-linecap: round; stroke-linejoin: round; stroke: rgb(0, 0, 0);"/></g><g class="collabel" transform="translate(158,29) scale(20)"><polygon transform="rotate(-18)" points="0.7071067811865475,0,0.21850801222441055,0.6724985119639573,-0.5720614028176843,0.41562693777745346,-0.5720614028176843,-0.4156269377774533,0.21850801222441038,-0.6724985119639573" vector-effect="non-scaling-stroke" style="fill: rgb(255, 255, 255); stroke-width: 2.3px; stroke-linecap: round; stroke-linejoin: round; stroke: rgb(0, 0, 0);"/></g><g class="collabel" transform="translate(200,29) scale(20)"><polygon points="0.7071067811865475,0,0.3535533905932738,0.6123724356957945,-0.35355339059327356,0.6123724356957945,-0.7071067811865475,8.659560562354932e-17,-0.35355339059327406,-0.6123724356957942,0.3535533905932733,-0.6123724356957948" vector-effect="non-scaling-stroke" style="fill: rgb(255, 255, 255); stroke-width: 2.3px; stroke-linecap: round; stroke-linejoin: round; stroke: rgb(0, 0, 0);"/></g><g class="collabel" transform="translate(242,29) scale(20)"><polygon transform="rotate(12.85)" points="0.7071067811865475,0,0.4408738668949674,0.5528383429982752,-0.15734606135647375,0.6893781378718103,-0.6370811961317672,0.3068021341766003,-0.6370811961317673,-0.3068021341766001,-0.15734606135647392,-0.6893781378718103,0.4408738668949672,-0.5528383429982753" vector-effect="non-scaling-stroke" style="fill: rgb(255, 255, 255); stroke-width: 2.3px; stroke-linecap: round; stroke-linejoin: round; stroke: rgb(0, 0, 0);"/></g><g class="collabel" transform="translate(284,29) scale(20)"><polygon transform="rotate(22.5)" points="0.7071067811865475,0,0.5,0.4999999999999999,4.329780281177466e-17,0.7071067811865475,-0.4999999999999999,0.5,-0.7071067811865475,8.659560562354932e-17,-0.5000000000000001,-0.4999999999999999,-1.2989340843532398e-16,-0.7071067811865475,0.49999999999999983,-0.5000000000000001" vector-effect="non-scaling-stroke" style="fill: rgb(255, 255, 255); stroke-width: 2.3px; stroke-linecap: round; stroke-linejoin: round; stroke: rgb(0, 0, 0);"/></g><g class="collabel" transform="translate(326,29) scale(20)"><circle transform="scale(0.9)" r="0.7071067811865475" vector-effect="non-scaling-stroke" style="fill: rgb(255, 255, 255); stroke-width: 2.3px; stroke-linecap: round; stroke-linejoin: round; stroke: rgb(0, 0, 0);"/></g><g class="row" transform="translate(0,53)"><rect class="cell" x="53" width="42" height="42" style="fill: rgb(0, 0, 0); stroke: none; stroke-width: 1px; opacity: 1;"/><rect class="cell" x="95" width="42" height="42" style="fill: rgb(181, 181, 181); stroke: none; stroke-width: 1px; opacity: 1;"/><rect class="cell" x="137" width="42" height="42" style="fill: rgb(165, 165, 165); stroke: none; stroke-width: 1px; opacity: 1;"/><rect class="cell" x="179" width="42" height="42" style="fill: rgb(183, 183, 183); stroke: none; stroke-width: 1px; opacity: 1;"/><rect class="cell" x="221" width="42" height="42" style="fill: rgb(199, 199, 199); stroke: none; stroke-width: 1px; opacity: 1;"/><rect class="cell" x="263" width="42" height="42" style="fill: rgb(204, 204, 204); stroke: none; stroke-width: 1px; opacity: 1;"/><rect class="cell" x="305" width="42" height="42" style="fill: rgb(234, 234, 234); stroke: none; stroke-width: 1px; opacity: 1;"/></g><g class="row" transform="translate(0,95)"><rect class="cell" x="53" width="42" height="42" style="fill: rgb(181, 181, 181); stroke: none; stroke-width: 1px; opacity: 1;"/><rect class="cell" x="95" width="42" height="42" style="fill: rgb(0, 0, 0); stroke: none; stroke-width: 1px; opacity: 1;"/><rect class="cell" x="137" width="42" height="42" style="fill: rgb(167, 167, 167); stroke: none; stroke-width: 1px; opacity: 1;"/><rect class="cell" x="179" width="42" height="42" style="fill: rgb(164, 164, 164); stroke: none; stroke-width: 1px; opacity: 1;"/><rect class="cell" x="221" width="42" height="42" style="fill: rgb(167, 167, 167); stroke: none; stroke-width: 1px; opacity: 1;"/><rect class="cell" x="263" width="42" height="42" style="fill: rgb(191, 191, 191); stroke: none; stroke-width: 1px; opacity: 1;"/><rect class="cell" x="305" width="42" height="42" style="fill: rgb(222, 222, 222); stroke: none; stroke-width: 1px; opacity: 1;"/></g><g class="row" transform="translate(0,137)"><rect class="cell" x="53" width="42" height="42" style="fill: rgb(165, 165, 165); stroke: none; stroke-width: 1px; opacity: 1;"/><rect class="cell" x="95" width="42" height="42" style="fill: rgb(167, 167, 167); stroke: none; stroke-width: 1px; opacity: 1;"/><rect class="cell" x="137" width="42" height="42" style="fill: rgb(0, 0, 0); stroke: none; stroke-width: 1px; opacity: 1;"/><rect class="cell" x="179" width="42" height="42" style="fill: rgb(113, 113, 113); stroke: none; stroke-width: 1px; opacity: 1;"/><rect class="cell" x="221" width="42" height="42" style="fill: rgb(101, 101, 101); stroke: none; stroke-width: 1px; opacity: 1;"/><rect class="cell" x="263" width="42" height="42" style="fill: rgb(128, 128, 128); stroke: none; stroke-width: 1px; opacity: 1;"/><rect class="cell" x="305" width="42" height="42" style="fill: rgb(209, 209, 209); stroke: none; stroke-width: 1px; opacity: 1;"/></g><g class="row" transform="translate(0,179)"><rect class="cell" x="53" width="42" height="42" style="fill: rgb(183, 183, 183); stroke: none; stroke-width: 1px; opacity: 1;"/><rect class="cell" x="95" width="42" height="42" style="fill: rgb(164, 164, 164); stroke: none; stroke-width: 1px; opacity: 1;"/><rect class="cell" x="137" width="42" height="42" style="fill: rgb(113, 113, 113); stroke: none; stroke-width: 1px; opacity: 1;"/><rect class="cell" x="179" width="42" height="42" style="fill: rgb(0, 0, 0); stroke: none; stroke-width: 1px; opacity: 1;"/><rect class="cell" x="221" width="42" height="42" style="fill: rgb(71, 71, 71); stroke: none; stroke-width: 1px; opacity: 1;"/><rect class="cell" x="263" width="42" height="42" style="fill: rgb(93, 93, 93); stroke: none; stroke-width: 1px; opacity: 1;"/><rect class="cell" x="305" width="42" height="42" style="fill: rgb(185, 185, 185); stroke: none; stroke-width: 1px; opacity: 1;"/></g><g class="row" transform="translate(0,221)"><rect class="cell" x="53" width="42" height="42" style="fill: rgb(199, 199, 199); stroke: none; stroke-width: 1px; opacity: 1;"/><rect class="cell" x="95" width="42" height="42" style="fill: rgb(167, 167, 167); stroke: none; stroke-width: 1px; opacity: 1;"/><rect class="cell" x="137" width="42" height="42" style="fill: rgb(101, 101, 101); stroke: none; stroke-width: 1px; opacity: 1;"/><rect class="cell" x="179" width="42" height="42" style="fill: rgb(71, 71, 71); stroke: none; stroke-width: 1px; opacity: 1;"/><rect class="cell" x="221" width="42" height="42" style="fill: rgb(0, 0, 0); stroke: none; stroke-width: 1px; opacity: 1;"/><rect class="cell" x="263" width="42" height="42" style="fill: rgb(42, 42, 42); stroke: none; stroke-width: 1px; opacity: 1;"/><rect class="cell" x="305" width="42" height="42" style="fill: rgb(162, 162, 162); stroke: none; stroke-width: 1px; opacity: 1;"/></g><g class="row" transform="translate(0,263)"><rect class="cell" x="53" width="42" height="42" style="fill: rgb(204, 204, 204); stroke: none; stroke-width: 1px; opacity: 1;"/><rect class="cell" x="95" width="42" height="42" style="fill: rgb(191, 191, 191); stroke: none; stroke-width: 1px; opacity: 1;"/><rect class="cell" x="137" width="42" height="42" style="fill: rgb(128, 128, 128); stroke: none; stroke-width: 1px; opacity: 1;"/><rect class="cell" x="179" width="42" height="42" style="fill: rgb(93, 93, 93); stroke: none; stroke-width: 1px; opacity: 1;"/><rect class="cell" x="221" width="42" height="42" style="fill: rgb(42, 42, 42); stroke: none; stroke-width: 1px; opacity: 1;"/><rect class="cell" x="263" width="42" height="42" style="fill: rgb(0, 0, 0); stroke: none; stroke-width: 1px; opacity: 1;"/><rect class="cell" x="305" width="42" height="42" style="fill: rgb(133, 133, 133); stroke: none; stroke-width: 1px; opacity: 1;"/></g><g class="row" transform="translate(0,305)"><rect class="cell" x="53" width="42" height="42" style="fill: rgb(234, 234, 234); stroke: none; stroke-width: 1px; opacity: 1;"/><rect class="cell" x="95" width="42" height="42" style="fill: rgb(222, 222, 222); stroke: none; stroke-width: 1px; opacity: 1;"/><rect class="cell" x="137" width="42" height="42" style="fill: rgb(209, 209, 209); stroke: none; stroke-width: 1px; opacity: 1;"/><rect class="cell" x="179" width="42" height="42" style="fill: rgb(185, 185, 185); stroke: none; stroke-width: 1px; opacity: 1;"/><rect class="cell" x="221" width="42" height="42" style="fill: rgb(162, 162, 162); stroke: none; stroke-width: 1px; opacity: 1;"/><rect class="cell" x="263" width="42" height="42" style="fill: rgb(133, 133, 133); stroke: none; stroke-width: 1px; opacity: 1;"/><rect class="cell" x="305" width="42" height="42" style="fill: rgb(0, 0, 0); stroke: none; stroke-width: 1px; opacity: 1;"/></g></svg>