<?xml version="1.0" standalone="no"?><!DOCTYPE svg PUBLIC "-//W3C//DTD SVG 1.1//EN" "http://www.w3.org/Graphics/SVG/1.1/DTD/svg11.dtd"><svg width="350" height="350" version="1.1" xmlns="http://www.w3.org/2000/svg" xmlns:xlink="http://www.w3.org/1999/xlink"><defs xmlns="http://www.w3.org/1999/xhtml"><style type="text/css"><![CDATA[]]></style></defs><g class="shape" transform="translate(325,98.64631162232507) scale(18,18)"><polygon transform="rotate(-90)" points="0.5303300858899106,0,-0.5303300858899105,0.6123724356957945,-0.5303300858899109,-0.6123724356957942" vector-effect="non-scaling-stroke" style="fill: rgb(255, 255, 255); stroke-width: 2.3px; stroke-linecap: round; stroke-linejoin: round; stroke: rgb(0, 0, 0);"/></g><g class="shape" transform="translate(278.12154151280396,149.9767132681847) scale(18,18)"><polygon transform="rotate(45)" points="0.7071067811865475,0,4.329780281177466e-17,0.7071067811865475,-0.7071067811865475,8.659560562354932e-17,-1.2989340843532398e-16,-0.7071067811865475" vector-effect="non-scaling-stroke" style="fill: rgb(255, 255, 255); stroke-width: 2.3px; stroke-linecap: round; stroke-linejoin: round; stroke: rgb(0, 0, 0);"/></g><g class="shape" transform="translate(218.09891410350536,243) scale(18,18)"><polygon transform="rotate(-18)" points="0.7071067811865475,0,0.21850801222441055,0.6724985119639573,-0.5720614028176843,0.41562693777745346,-0.5720614028176843,-0.4156269377774533,0.21850801222441038,-0.6724985119639573" vector-effect="non-scaling-stroke" style="fill: rgb(255, 255, 255); stroke-width: 2.3px; stroke-linecap: round; stroke-linejoin: round; stroke: rgb(0, 0, 0);"/></g><g class="shape" transform="translate(168.8227446554388,236.01829771979862) scale(18,18)"><polygon points="0.7071067811865475,0,0.3535533905932738,0.6123724356957945,-0.35355339059327356,0.6123724356957945,-0.7071067811865475,8.659560562354932e-17,-0.35355339059327406,-0.6123724356957942,0.3535533905932733,-0.6123724356957948" vector-effect="non-scaling-stroke" style="fill: rgb(255, 255, 255); stroke-width: 2.3px; stroke-linecap: round; stroke-linejoin: round; stroke: rgb(0, 0, 0);"/></g><g class="shape" transform="translate(131.56496203197423,231.867177880644) scale(18,18)"><polygon transform="rotate(12.85)" points="0.7071067811865475,0,0.4408738668949674,0.5528383429982752,-0.15734606135647375,0.6893781378718103,-0.6370811961317672,0.3068021341766003,-0.6370811961317673,-0.3068021341766001,-0.15734606135647392,-0.6893781378718103,0.4408738668949672,-0.5528383429982753" vector-effect="non-scaling-stroke" style="fill: rgb(255, 255, 255); stroke-width: 2.3px; stroke-linecap: round; stroke-linejoin: round; stroke: rgb(0, 0, 0);"/></g><g class="shape" transform="translate(97.4298988615071,198.01539720390892) scale(18,18)"><polygon transform="rotate(22.5)" points="0.7071067811865475,0,0.5,0.4999999999999999,4.329780281177466e-17,0.7071067811865475,-0.4999999999999999,0.5,-0.7071067811865475,8.659560562354932e-17,-0.5000000000000001,-0.4999999999999999,-1.2989340843532398e-16,-0.7071067811865475,0.49999999999999983,-0.5000000000000001" vector-effect="non-scaling-stroke" style="fill: rgb(255, 255, 255); stroke-width: 2.3px; stroke-linecap: round; stroke-linejoin: round; stroke: rgb(0, 0, 0);"/></g><g class="shape" transform="translate(50,50) scale(18,18)"><circle transform="scale(0.9)" r="0.7071067811865475" vector-effect="non-scaling-stroke" style="fill: rgb(255, 255, 255); stroke-width: 2.3px; stroke-linecap: round; stroke-linejoin: round; stroke: rgb(0, 0, 0);"/></g></svg>