<?xml version="1.0" encoding="UTF-8" standalone="no"?>
<!-- Created with Inkscape (http://www.inkscape.org/) -->

<svg
   xmlns:dc="http://purl.org/dc/elements/1.1/"
   xmlns:cc="http://creativecommons.org/ns#"
   xmlns:rdf="http://www.w3.org/1999/02/22-rdf-syntax-ns#"
   xmlns:svg="http://www.w3.org/2000/svg"
   xmlns="http://www.w3.org/2000/svg"
   xmlns:sodipodi="http://sodipodi.sourceforge.net/DTD/sodipodi-0.dtd"
   xmlns:inkscape="http://www.inkscape.org/namespaces/inkscape"
   id="svg2"
   version="1.1"
   inkscape:version="0.48.5 r10040"
   width="578.08856"
   height="59.324314"
   xml:space="preserve"
   sodipodi:docname="vp.pdf"><metadata
     id="metadata8"><rdf:RDF><cc:Work
         rdf:about=""><dc:format>image/svg+xml</dc:format><dc:type
           rdf:resource="http://purl.org/dc/dcmitype/StillImage" /><dc:title></dc:title></cc:Work></rdf:RDF></metadata><defs
     id="defs6"><clipPath
       clipPathUnits="userSpaceOnUse"
       id="clipPath18"><path
         d="M 0,0 578,0 578,178 0,178 0,0 z"
         id="path20"
         inkscape:connector-curvature="0" /></clipPath><clipPath
       clipPathUnits="userSpaceOnUse"
       id="clipPath28"><path
         d="m 68.58803,177.0121 120.97697,0 0,-62.2258 -120.97697,0 0,62.2258 z"
         id="path30"
         inkscape:connector-curvature="0" /></clipPath><clipPath
       clipPathUnits="userSpaceOnUse"
       id="clipPath34"><path
         d="m 68.58803,114.7863 120.9769,0 0,62.22575 -120.9769,0 0,-62.22575 z"
         id="path36"
         inkscape:connector-curvature="0" /></clipPath><clipPath
       clipPathUnits="userSpaceOnUse"
       id="clipPath66"><path
         d="M 0,0 578,0 578,178 0,178 0,0 z"
         id="path68"
         inkscape:connector-curvature="0" /></clipPath><clipPath
       clipPathUnits="userSpaceOnUse"
       id="clipPath108"><path
         d="m 499.5042,177.253 45.9461,0 0,-62.2762 -45.9461,0 0,62.2762 z"
         id="path110"
         inkscape:connector-curvature="0" /></clipPath><clipPath
       clipPathUnits="userSpaceOnUse"
       id="clipPath114"><path
         d="m 499.5042,114.9768 45.94598,0 0,62.27622 -45.94598,0 0,-62.27622 z"
         id="path116"
         inkscape:connector-curvature="0" /></clipPath><clipPath
       clipPathUnits="userSpaceOnUse"
       id="clipPath128"><path
         d="m 69.90662,120.2972 117.74998,0 0,-62.25004 -117.74998,0 0,62.25004 z"
         id="path130"
         inkscape:connector-curvature="0" /></clipPath><clipPath
       clipPathUnits="userSpaceOnUse"
       id="clipPath134"><path
         d="m 69.90662,58.04716 117.75,0 0,62.25 -117.75,0 0,-62.25 z"
         id="path136"
         inkscape:connector-curvature="0" /></clipPath><clipPath
       clipPathUnits="userSpaceOnUse"
       id="clipPath166"><path
         d="m 358.196,119.9113 45.946,0 0,-62.27618 -45.946,0 0,62.27618 z"
         id="path168"
         inkscape:connector-curvature="0" /></clipPath><clipPath
       clipPathUnits="userSpaceOnUse"
       id="clipPath172"><path
         d="m 358.196,57.63512 45.94598,0 0,62.27621 -45.94598,0 0,-62.27621 z"
         id="path174"
         inkscape:connector-curvature="0" /></clipPath><clipPath
       clipPathUnits="userSpaceOnUse"
       id="clipPath186"><path
         d="m 168.2059,97.91685 201.8546,0 0,-14.90724 -201.8546,0 0,14.90724 z"
         clip-rule="evenodd"
         id="path188"
         inkscape:connector-curvature="0" /></clipPath><linearGradient
       x1="0"
       y1="94661"
       x2="2563554"
       y2="94661"
       gradientUnits="userSpaceOnUse"
       gradientTransform="matrix(7.874016e-5,0,0,-7.874016e-5,168.2059,97.91685)"
       spreadMethod="pad"
       id="linearGradient198"><stop
         style="stop-opacity:1;stop-color:#323232"
         offset="0"
         id="stop200" /><stop
         style="stop-opacity:1;stop-color:#ffffff"
         offset="1"
         id="stop202" /></linearGradient><clipPath
       clipPathUnits="userSpaceOnUse"
       id="clipPath210"><path
         d="m 0.2851968,63.1322 186.2500032,0 0,-62.2499987 -186.2500032,0 0,62.2499987 z"
         id="path212"
         inkscape:connector-curvature="0" /></clipPath><clipPath
       clipPathUnits="userSpaceOnUse"
       id="clipPath216"><path
         d="m 0.2851968,0.8821991 186.2500032,0 0,62.2499999 -186.2500032,0 0,-62.2499999 z"
         id="path218"
         inkscape:connector-curvature="0" /></clipPath><clipPath
       clipPathUnits="userSpaceOnUse"
       id="clipPath266"><path
         d="M 0,0 578,0 578,178 0,178 0,0 z"
         id="path268"
         inkscape:connector-curvature="0" /></clipPath><clipPath
       clipPathUnits="userSpaceOnUse"
       id="clipPath286"><path
         d="m 502.2906,63.38858 45.946,0 0,-62.276221 -45.946,0 0,62.276221 z"
         id="path288"
         inkscape:connector-curvature="0" /></clipPath><clipPath
       clipPathUnits="userSpaceOnUse"
       id="clipPath292"><path
         d="m 502.2906,1.112361 45.94598,0 0,62.27622 -45.94598,0 0,-62.27622 z"
         id="path294"
         inkscape:connector-curvature="0" /></clipPath><clipPath
       clipPathUnits="userSpaceOnUse"
       id="clipPath306"><path
         d="M 0,0 578,0 578,178 0,178 0,0 z"
         id="path308"
         inkscape:connector-curvature="0" /></clipPath></defs><sodipodi:namedview
     pagecolor="#ffffff"
     bordercolor="#666666"
     borderopacity="1"
     objecttolerance="10"
     gridtolerance="10"
     guidetolerance="10"
     inkscape:pageopacity="0"
     inkscape:pageshadow="2"
     inkscape:window-width="1221"
     inkscape:window-height="784"
     id="namedview4"
     showgrid="false"
     fit-margin-top="0"
     fit-margin-left="0"
     fit-margin-right="0"
     fit-margin-bottom="0"
     inkscape:zoom="1.3940814"
     inkscape:cx="233.96277"
     inkscape:cy="54.963211"
     inkscape:window-x="0"
     inkscape:window-y="0"
     inkscape:window-maximized="0"
     inkscape:current-layer="g10" /><g
     id="g10"
     inkscape:groupmode="layer"
     inkscape:label="vp"
     transform="matrix(1.25,0,0,-1.25,-93.94108,213.33033)"><g
       id="g12" /><g
       id="g14"><g
         id="g16"
         clip-path="url(#clipPath18)"><path
           d="M 0,178 578,178 578,0 0,0 0,178 z"
           style="fill:#ffffff;fill-opacity:0;fill-rule:evenodd;stroke:none"
           id="path22"
           inkscape:connector-curvature="0" /></g></g><g
       id="g24"><g
         id="g26"
         clip-path="url(#clipPath28)"><g
           id="g32"
           clip-path="url(#clipPath34)"><g
             id="g38"
             transform="matrix(0.1021765,0,0,0.102345,75.12732,137.7116)"><text
               transform="matrix(1,0,0,-1,-29,0)"
               id="text40"><tspan
                 style="font-size:384px;font-style:italic;font-variant:normal;writing-mode:lr-tb;fill:#000000;fill-opacity:1;fill-rule:nonzero;stroke:none;font-family:Times;-inkscape-font-specification:Times-Italic"
                 x="0"
                 y="0"
                 id="tspan42">V</tspan></text>
</g><g
             id="g44"
             transform="matrix(0.1021765,0,0,0.102345,75.12732,127.8865)"><text
               transform="matrix(1,0,0,-1,203,0)"
               id="text46"><tspan
                 style="font-size:222px;font-style:italic;font-variant:normal;writing-mode:lr-tb;fill:#000000;fill-opacity:1;fill-rule:nonzero;stroke:none;font-family:Times;-inkscape-font-specification:Times-Italic"
                 x="0"
                 y="0"
                 id="tspan48">p</tspan></text>
</g><g
             id="g50"
             transform="matrix(0.1021765,0,0,0.102345,75.12732,137.7116)"><text
               transform="matrix(1,0,0,-1,424,0)"
               id="text52"><tspan
                 style="font-size:384px;font-variant:normal;font-weight:normal;writing-mode:lr-tb;fill:#000000;fill-opacity:1;fill-rule:nonzero;stroke:none;font-family:Symbol;-inkscape-font-specification:Symbol"
                 x="0"
                 y="0"
                 id="tspan54">=</tspan></text>
</g><g
             id="g56"
             transform="matrix(0.1021765,0,0,0.102345,75.12732,134.4365)"><text
               transform="matrix(0.83333333,0,0,-1,692,0)"
               id="text58"><tspan
                 style="font-size:460.79998779px;font-variant:normal;font-weight:normal;writing-mode:lr-tb;fill:#000000;fill-opacity:1;fill-rule:nonzero;stroke:none;font-family:Symbol;-inkscape-font-specification:Symbol"
                 x="0"
                 y="0"
                 id="tspan60">{</tspan></text>
</g></g></g></g><g
       id="g62"><g
         id="g64"
         clip-path="url(#clipPath66)"><g
           id="g70"
           transform="matrix(7.874016e-5,0,0,-7.874016e-5,485.8659,166.0717)"><path
             d="M 0.00317383,209180 C 0.00317383,93652.98 93653.2,-0.02197266 209179.9,-0.02197266 324706.9,-0.02197266 418359.8,93652.98 418359.8,209180 c 0,115526.9 -93652.9,209179.9 -209179.9,209179.9 C 93653.2,418359.9 0.00317383,324706.9 0.00317383,209180 z"
             style="fill:none;stroke:#000000;stroke-width:38100;stroke-linecap:butt;stroke-linejoin:round;stroke-miterlimit:10;stroke-opacity:1;stroke-dasharray:none"
             id="path72"
             inkscape:connector-curvature="0" /></g><g
           id="g74"
           transform="matrix(7.874016e-5,0,0,-7.874016e-5,167.8092,161.0507)"><path
             d="M 0.08587646,352580.9 204497.1,-0.07794189 408993.2,352580.9 0.08587646,352580.9 z"
             style="fill:none;stroke:#000000;stroke-width:38100;stroke-linecap:butt;stroke-linejoin:round;stroke-miterlimit:10;stroke-opacity:1;stroke-dasharray:none"
             id="path76"
             inkscape:connector-curvature="0" /></g><g
           id="g78"
           transform="matrix(7.874016e-5,0,0,-7.874016e-5,223.0723,161.0506)"><path
             d="m -0.03277588,0.01599121 356274.93277588,0 0,356274.98400879 -356274.93277588,0 0,-356274.98400879 z"
             style="fill:none;stroke:#000000;stroke-width:38100;stroke-linecap:butt;stroke-linejoin:round;stroke-miterlimit:10;stroke-opacity:1;stroke-dasharray:none"
             id="path80"
             inkscape:connector-curvature="0" /></g><g
           id="g82"
           transform="matrix(7.874016e-5,0,0,-7.874016e-5,271.5635,165.6546)"><path
             d="M -0.07250977,156951 215724.8,-0.02740479 431449.9,156951 l -82400,253952 -266649.96,0 L -0.07250977,156951 z"
             style="fill:none;stroke:#000000;stroke-width:38100;stroke-linecap:butt;stroke-linejoin:round;stroke-miterlimit:10;stroke-opacity:1;stroke-dasharray:none"
             id="path84"
             inkscape:connector-curvature="0" /></g><g
           id="g86"
           transform="matrix(7.874016e-5,0,0,-7.874016e-5,324.8573,163.5766)"><path
             d="M 0.09509277,192833 96417.08,-0.00262451 l 254539.92,0 L 447373.2,192833 350957,385666 96417.08,385666 0.09509277,192833 z"
             style="fill:none;stroke:#000000;stroke-width:38100;stroke-linecap:butt;stroke-linejoin:round;stroke-miterlimit:10;stroke-opacity:1;stroke-dasharray:none"
             id="path88"
             inkscape:connector-curvature="0" /></g><g
           id="g90"
           transform="matrix(7.874016e-5,0,0,-7.874016e-5,379.7012,166.0717)"><path
             d="M -1.279907,269887 41558.97,83118.94 209830.9,-0.02197266 378102,83118.94 419661.9,269887 303212.8,419662.9 l -186765,0 L -1.279907,269887 z"
             style="fill:none;stroke:#000000;stroke-width:38100;stroke-linecap:butt;stroke-linejoin:round;stroke-miterlimit:10;stroke-opacity:1;stroke-dasharray:none"
             id="path92"
             inkscape:connector-curvature="0" /></g><g
           id="g94"
           transform="matrix(7.874016e-5,0,0,-7.874016e-5,433.7935,165.3807)"><path
             d="M 0.0670166,119241 119241.2,0.02380371 l 168637.8,0 L 407120.2,119241 l 0,168638 -119241.2,119240.9 -168637.8,0 L 0.0670166,287879 l 0,-168638 z"
             style="fill:none;stroke:#000000;stroke-width:38100;stroke-linecap:butt;stroke-linejoin:round;stroke-miterlimit:10;stroke-opacity:1;stroke-dasharray:none"
             id="path96"
             inkscape:connector-curvature="0" /></g><g
           id="g98"
           transform="translate(202.9442,149.9462)"><text
             transform="matrix(1,0,0,-1,0,-18)"
             id="text100"><tspan
               style="font-size:18px;font-variant:normal;font-weight:normal;writing-mode:lr-tb;fill:#000000;fill-opacity:1;fill-rule:nonzero;stroke:none;font-family:ACaslonPro;-inkscape-font-specification:ACaslonPro-Regular"
               x="0 3.312 53.604 56.916 102.636 105.948 156.24001 159.552 209.84399 213.15601 263.448 266.76001"
               y="0"
               sodipodi:role="line"
               id="tspan102">, , , , , , </tspan></text>
</g></g></g><g
       id="g104"><g
         id="g106"
         clip-path="url(#clipPath108)"><g
           id="g112"
           clip-path="url(#clipPath114)"><g
             id="g118"
             transform="matrix(0.102558,0,0,0.102428,506.0679,134.6429)"><text
               transform="matrix(0.83333333,0,0,-1,153,0)"
               id="text120"><tspan
                 style="font-size:460.79998779px;font-variant:normal;font-weight:normal;writing-mode:lr-tb;fill:#000000;fill-opacity:1;fill-rule:nonzero;stroke:none;font-family:Symbol;-inkscape-font-specification:Symbol"
                 x="0"
                 y="0"
                 id="tspan122">}</tspan></text>
</g></g></g></g></g></svg>